<?xml version="1.0" standalone="no"?>
<!DOCTYPE svg PUBLIC "-//W3C//DTD SVG 1.1//EN" "http://www.w3.org/Graphics/SVG/1.1/DTD/svg11.dtd" >
<svg xmlns="http://www.w3.org/2000/svg">
<metadata></metadata>
<defs>
<font id="10_cent_comicsbold" horiz-adv-x="733" >
<font-face units-per-em="2048" ascent="1638" descent="-410" />
<missing-glyph horiz-adv-x="500" />
<glyph horiz-adv-x="2048" />
<glyph horiz-adv-x="2048" />
<glyph unicode="&#xd;" horiz-adv-x="2048" />
<glyph unicode=" " />
<glyph unicode="!" horiz-adv-x="989" d="M174 84q0 41 8 72q34 178 267 178q72 0 102 -23q51 -42 51 -155q0 -41 -10 -93q-40 -210 -246 -210q-92 0 -125 45q-47 65 -47 186zM326 565q0 30 22 88q6 14 18 43t17 43q137 394 217 803q4 23 9.5 55.5t15 83.5t16.5 88q15 60 113 91q74 22 147 22q69 0 119 -18 q68 -26 59 -80q-10 -42 -32 -98q-36 -82 -41 -97q-64 -176 -129 -428q-59 -215 -117 -432q-7 -37 -41 -145q-47 -103 -232 -103q-161 0 -161 84z" />
<glyph unicode="&#x22;" horiz-adv-x="1196" d="M262 1057q2 35 57 346q27 161 48 270q27 152 182 152q182 0 182 -156q0 -62 -53 -233q-21 -60 -84 -392q-13 -65 -64 -104t-118 -39q-73 0 -114.5 42.5t-35.5 113.5zM762 1057q2 37 57 346q19 113 49 270q27 152 181 152q184 0 184 -156q0 -34 -8 -70q-14 -66 -45 -165 q-33 -104 -43 -164q-9 -39 -21 -113q-13 -86 -20 -113q-13 -65 -64 -104t-119 -39q-73 0 -115 42.5t-36 113.5z" />
<glyph unicode="#" horiz-adv-x="1796" d="M74 489q0 31 6 66q14 76 57 131q52 64 127 64q10 0 24 -1t35 -2t35 -2q71 -6 95 -6l18 86l-192 -10q-111 0 -111 139q0 28 6 62q18 82 62 141q60 72 135 72q12 0 86 -4q16 -1 36.5 -3t32 -3t17.5 -2q8 79 43 346q15 69 108 110q70 33 154 33q139 0 139 -84 q0 -41 -43 -195q-49 -182 -55 -210q101 0 184 6q9 117 43 340q15 68 109 110q70 33 155 33q138 0 138 -84q0 -48 -39 -184q-52 -186 -54 -197q82 4 88 4q88 0 150 -41q68 -47 68 -125q0 -97 -93 -178q-59 -47 -143 -59q-35 -6 -147 -6l-15 -70q44 2 104 5l46 3q90 0 151 -43 q72 -44 72 -123q0 -104 -98 -180q-64 -52 -168 -61q-10 -2 -174 -2q-8 -48 -54 -295q-12 -68 -110 -111q-76 -33 -158 -33q-133 0 -133 84q0 38 37 174q22 76 51 185l-164 -2q-17 -119 -53 -297q-12 -68 -113 -111q-73 -33 -155 -33q-131 0 -131 84q0 46 32 166 q9 33 26.5 92t23.5 82q-15 0 -86 -6q-70 -4 -86 -4q-119 0 -119 149zM801 737q23 1 184 11l21 94q-50 0 -95 -2h-96z" />
<glyph unicode="$" horiz-adv-x="1644" d="M33 317q12 68 78 125q64 58 133 58q63 0 133 -82q89 -98 145 -121q34 159 72 315q-457 27 -457 344q0 41 10 99q46 236 224 420t422 243q7 71 10 90q15 90 104 140q74 45 170 45q131 0 131 -99q0 -32 -16 -88q-24 -81 -27 -86q94 -24 176 -78q103 -68 103 -149 q0 -12 -2 -20q-12 -63 -66 -136q-61 -82 -119 -82q-30 0 -90 31q-66 35 -90 39l-14 -80l-47 -237q82 6 160 6q201 0 278 -45q96 -56 96 -197q0 -54 -16 -139q-46 -235 -260 -428q-195 -177 -449 -254l-14 -80q-15 -79 -111 -129q-82 -43 -165 -43q-127 0 -127 92 q0 43 26 131q-352 46 -399 303q-10 57 -2 92zM530 1145q-9 -43 28 -76.5t120 -58.5q34 170 55 313q-64 -22 -123 -72q-71 -56 -80 -106zM895 328q266 125 293 258q9 41 -176 41h-64q-7 -36 -53 -299z" />
<glyph unicode="%" horiz-adv-x="2387" d="M145 1024q0 227 177 401q112 112 260 172q85 39 290 86q419 101 857 185q203 43 258 43q93 0 196 -41q132 -50 117 -123q-7 -33 -39 -74q-22 -26 -88 -101.5t-107 -123.5q-115 -138 -376 -467q126 29 239 29q408 0 408 -273q0 -151 -107 -303q-134 -194 -358 -305 q-204 -92 -438 -92q-252 0 -304 225q-58 -72 -258 -334q-51 -69 -104 -133q-48 -51 -129 -51q-71 0 -141 43q-78 50 -78 115q0 33 29 73q60 82 157 191l166 186q543 642 934 1168q-218 -15 -344 -33q26 -69 8 -160q-55 -285 -340 -469q-259 -168 -555 -168q-154 0 -244 96 q-86 89 -86 238zM496 1151q-6 -32 40 -48t144 -16q227 0 309 125q13 22 15 27q9 48 -54 76q-47 20 -102 20q-98 0 -205 -43q-129 -56 -147 -141zM1464 492q-12 -62 183 -62q225 0 305 123q9 15 12 27q9 46 -49 73q-54 23 -100 23q-98 0 -205 -43q-131 -59 -146 -141z" />
<glyph unicode="&#x26;" horiz-adv-x="1538" d="M78 305q0 227 219 410q-127 106 -127 272q0 184 141 412q125 198 543 307q0 3 3 27t5 41q18 85 107 135q77 41 168 41q129 0 129 -92q0 -20 -25 -109q330 -38 330 -322q0 -64 -19 -161q-38 -185 -192 -185q-148 0 -148 101q0 1 1.5 8t5 24.5t6.5 36.5q10 57 -41.5 85 t-167.5 28q-394 0 -453 -293q-9 -60 23 -82q67 -43 186 -43q36 0 133 19q87 20 142 20q188 0 188 -162q0 -24 -6 -59q-23 -123 -172 -164q-1 0 -295 -39q-181 -21 -252 -98q-27 -27 -27 -82q0 -127 205 -127q214 0 352 102q100 74 158 74q60 0 94.5 -44t34.5 -112 q0 -256 -442 -358q-15 -75 -17 -88q-15 -77 -110 -127q-80 -45 -166 -45q-127 0 -127 94q0 12 29 141q-310 35 -381 234q-35 90 -35 180z" />
<glyph unicode="'" horiz-adv-x="845" d="M213 1061q0 37 33 84q134 206 170 276q39 73 110 293q44 127 187 127q70 0 123 -39t53 -100q0 -92 -139 -334q-107 -196 -203 -315q-79 -97 -191 -97q-54 0 -96 25q-47 27 -47 80z" />
<glyph unicode="(" horiz-adv-x="1181" d="M68 608q0 110 22 226q71 351 336 659q129 156 299 281q210 151 354 151q80 0 142 -39q73 -46 73 -114q0 -96 -147 -173q-68 -29 -201 -106q-193 -123 -321 -291q-136 -176 -174 -377q-17 -80 -17 -141q0 -184 96 -342q88 -149 248 -246l103 -55q61 -40 61 -90 q0 -83 -102 -166q-104 -84 -189 -84q-37 0 -76 20q-148 77 -282 242q-134 166 -180 328q-45 148 -45 317z" />
<glyph unicode=")" horiz-adv-x="1261" d="M14 -147q0 95 148 172q74 33 203 106q415 265 495 668q14 66 14 139q0 186 -96 344q-87 148 -248 250l-102 53q-57 39 -57 90q0 90 100 168q103 80 193 80q32 0 69 -16q147 -74 283 -244q126 -157 175.5 -313t49.5 -334q0 -120 -20 -223q-71 -350 -338 -664 q-135 -153 -303 -276q-208 -152 -355 -152q-75 0 -137 39q-74 47 -74 113z" />
<glyph unicode="*" horiz-adv-x="1652" d="M90 1116q0 35 8 66q14 78 58 141q57 78 129 78q37 0 102 -6q76 -9 105 -9q-80 133 -80 197q0 90 71 164q73 76 166 76q101 0 166 -99q14 -20 86 -182q45 50 156 170q98 94 192 94q73 0 119.5 -45.5t46.5 -113.5q0 -97 -133 -236q62 4 76 4q84 0 141 -46t57 -122 q0 -9 -4 -37q-18 -87 -102 -147q-80 -57 -176 -57h-105q45 -68 54 -82q29 -51 20 -95q-12 -73 -127 -147q-109 -68 -184 -68q-63 0 -88 54q-47 128 -84 219q-155 -175 -205 -230q-41 -41 -94 -41q-77 0 -148 68q-69 66 -69 143q0 55 45 97q30 28 82 69q-17 0 -88 -6 q-78 -4 -88 -4q-105 0 -105 133z" />
<glyph unicode="+" horiz-adv-x="1374" d="M78 725q0 39 8 80q44 221 172 221q55 0 139 -8q95 -6 144 -6h24q35 222 47 288q15 66 95 101q61 24 135 24q72 0 125 -24q67 -34 55 -94q-42 -144 -76 -277l86 10q70 4 86 4q189 0 189 -155q0 -15 -4 -51q-43 -205 -291 -205l-135 4q-4 -30 -18.5 -118t-22.5 -142 q-19 -98 -87 -159.5t-161 -61.5q-164 0 -164 170q0 31 6 61q22 118 55 248l-319 -21q-88 0 -88 111z" />
<glyph unicode="," horiz-adv-x="856" d="M-74 -182q0 36 31 84q136 203 172 276q34 70 109 291q46 129 186 129q72 0 124 -39t52 -100q0 -94 -135 -334q-105 -189 -205 -318q-77 -92 -192 -92q-55 0 -97 25q-45 26 -45 78z" />
<glyph unicode="-" horiz-adv-x="1271" d="M133 672q0 42 12 94q40 199 140 199q41 0 123 -9q82 -6 127 -6q56 0 241 17q163 18 242 18q137 0 137 -149q0 -101 -61 -177q-60 -78 -158 -81q-35 -3 -86 -3q-12 0 -30.5 1t-46.5 2t-50 2q-110 4 -127 4q-61 0 -190 -15q-118 -14 -191 -14q-82 0 -82 117z" />
<glyph unicode="." horiz-adv-x="774" d="M84 201q0 37 6 71q38 179 270 179q154 0 154 -168q0 -47 -12 -99q-43 -223 -246 -223q-92 0 -127 53q-45 65 -45 187z" />
<glyph unicode="/" horiz-adv-x="1566" d="M-152 -96q0 33 23 71q11 13 49 59.5t66 78.5l264 315q492 587 776 958q117 155 215 291q42 66 121 176q49 58 129 58q76 0 141 -45q78 -54 78 -119q0 -37 -27 -72q-16 -20 -72.5 -84t-131.5 -152t-154 -186q-322 -401 -801 -1024l-243 -317q-20 -31 -91 -115 q-51 -51 -129 -51q-74 0 -139 41q-74 50 -74 117z" />
<glyph unicode="0" horiz-adv-x="1605" d="M59 406q0 135 33 284q88 445 277 737q256 398 645 398q313 0 469 -203q82 -104 82 -295q0 -109 -31 -264q-17 -83 -49 -205q-155 -554 -400 -758q-241 -200 -550 -200q-476 0 -476 506zM406 590q0 -287 219 -287q212 0 393 272q142 214 192 461q13 63 13 115 q0 266 -260 266q-200 0 -367 -262q-132 -206 -178 -434q-12 -67 -12 -131z" />
<glyph unicode="1" horiz-adv-x="1290" d="M-66 33q0 33 9 73q17 84 51 138q50 78 117 78q45 0 137 -9q84 -8 141 -8h21q53 202 141 592q58 294 49 322q0 4 -4 4q1 0 -0.5 -1t-5.5 -4t-9 -6.5t-14 -9.5l-18 -12q-80 -53 -158 -53q-98 0 -98 159q0 97 59 150q39 33 254 149q217 115 256 121q36 4 51 4q134 0 134 -82 q0 -10 -3 -22q-17 -94 -61 -254q-40 -156 -61 -252q-21 -125 -136 -782q38 3 72 5.5t48.5 3.5t15.5 1q80 0 127 -42.5t47 -115.5q0 -24 -6 -51q-17 -85 -81.5 -141t-150.5 -60h-63q-18 0 -136 4q-59 2 -135 2q-94 0 -252 -14t-252 -14q-86 0 -86 127z" />
<glyph unicode="2" horiz-adv-x="1560" d="M70 -4q0 54 14 123q49 246 197 473q177 271 577 360q311 68 332 172q9 56 -37 138q-46 81 -190 81q-97 0 -236 -43q-171 -55 -186 -131l4 -114q-9 -58 -88 -103q-71 -41 -131 -41q-125 0 -125 226q0 85 14 159q35 161 264 295q200 117 455 117q108 0 303 -25 q171 -21 240 -124q108 -163 108 -322q0 -43 -6 -84q-82 -420 -748 -590q-143 -37 -210 -98q-65 -59 -103 -199h27q72 0 291 17q210 16 288 16q80 0 128 -44.5t48 -119.5q0 -11 -4 -43q-40 -205 -319 -205q-15 0 -141 4q-92 3 -138 3q-73 0 -270 -13q-182 -12 -268 -12 q-90 0 -90 127z" />
<glyph unicode="3" horiz-adv-x="1566" d="M27 139q-9 120 12 219q41 197 184 197q156 0 156 -88q0 -14 -6 -50.5t-6 -43.5q0 -99 194 -99q166 0 289 60q148 74 178 231q2 8 2 23q0 106 -209 106q-53 0 -143 -20q-100 -19 -141 -19q-179 0 -179 162q0 22 7 62q21 118 172 159q5 3 294 37q179 24 250 101 q29 32 29 86q0 122 -209 122q-214 0 -346 -100q-104 -76 -164 -76t-93.5 43t-33.5 111q0 201 273 309q201 82 442 82q413 0 504 -237q33 -85 33 -179q0 -228 -218 -413q123 -108 123 -277q0 -187 -139 -403q-109 -167 -397 -269q-247 -86 -463 -86q-149 0 -256 58 q-130 68 -139 192z" />
<glyph unicode="4" horiz-adv-x="1507" d="M43 553q0 109 47 186q52 90 172 269q116 171 178 268q72 130 262 455q44 71 150 71q77 0 145 -39q82 -43 70 -110q-6 -35 -145 -230q-88 -120 -177 -243q-105 -150 -237 -418q115 0 434 22q48 252 64 377q2 38 20 191q15 70 109 112q79 31 155 31q137 0 137 -84 q0 -31 -20 -98l-31 -103q-51 -201 -92 -424q119 -46 119 -186q0 -82 -52 -139.5t-137 -69.5l-61 -315q-9 -67 -109 -111q-79 -31 -155 -31q-133 0 -133 84q0 27 94 375q-203 0 -463 -10q-6 -1 -106 -8q-68 -6 -109 -6q-129 0 -129 184z" />
<glyph unicode="5" horiz-adv-x="1511" d="M2 180q-6 133 14 221q34 193 185 193q149 0 149 -92l-6 -78q0 -111 207 -111q157 0 274 60q145 74 172 223q2 10 2 27q0 110 -213 110q-70 0 -182 -14q-120 -12 -180 -12q-147 0 -209 47q-53 44 -53 137q0 52 41 260q31 167 76 332q21 89 81 155q69 78 152 78 q59 0 147 -8q99 -6 150 -6q73 0 260 16q199 17 260 17q78 0 126 -45t48 -119q0 -24 -6 -45q-21 -123 -125 -170q-67 -33 -209 -33q-79 0 -147 2q-132 4 -146 4q-107 0 -252 -8q-32 -121 -40 -162q-9 -38 -7 -45q9 -17 88 -20l-33 2h136q598 0 633 -396q3 -50 -9 -108 q-30 -151 -133 -309q-109 -168 -395 -269q-244 -86 -461 -86q-146 0 -258 56q-131 70 -137 196z" />
<glyph unicode="6" horiz-adv-x="1626" d="M78 475q0 156 39 334q88 453 368 688q278 236 574 236q405 0 469 -408q3 -37 -2 -61q-12 -64 -86 -129q-75 -66 -137 -66q-54 0 -89 74q-59 114 -73 131q-63 69 -185 69q-165 0 -305 -155q-116 -128 -172 -307q237 147 533 147q210 0 334 -92q131 -101 131 -285 q0 -49 -13 -116q-59 -278 -309 -490q-251 -213 -522 -213q-293 0 -453 244q-102 150 -102 399zM442 412q59 -195 256 -195q120 0 260 90q148 100 148 219q0 95 -158 95q-113 0 -264 -62q-162 -64 -242 -147z" />
<glyph unicode="7" horiz-adv-x="1490" d="M160 752q0 34 6 69q16 83 55 140q51 75 121 75q50 0 121 -8q73 -8 123 -8q119 0 223 8q103 185 180 332h-211q-87 0 -227 -14q-150 -15 -227 -15q-91 0 -91 133q0 32 9 70q15 79 55 137q50 78 117 78q63 0 147 -8t148 -8q309 0 534 30q53 6 66 6q82 0 151 -34 q87 -47 72 -117q-3 -17 -19 -43q-21 -34 -106 -164q-73 -118 -215 -358q12 2 35 2q75 0 119.5 -44t44.5 -116q0 -19 -7 -47q-19 -91 -85 -148t-154 -57q-55 0 -90 2h-90l-265 -485q-32 -55 -61 -117q-39 -71 -72 -104q-54 -54 -145 -54q-71 0 -133 35q-76 37 -76 103v20 q6 23 170 285q15 24 87 139t112 176q-8 -1 -62.5 -4t-103.5 -6q-117 -10 -166 -10q-90 0 -90 129z" />
<glyph unicode="8" horiz-adv-x="1632" d="M4 301q0 34 6 68q3 14 7 33t11 46.5t11 47.5q27 144 287 325q-162 88 -162 264q0 114 63 246q106 216 303 326q180 98 414 98q168 0 275 -35q92 -36 190 -118q6 -7 19.5 -21t17.5 -20q67 -82 67 -179q0 -148 -172 -338q138 -85 138 -286q0 -62 -15 -129 q-27 -146 -110 -293q-88 -163 -203 -252q-177 -143 -619 -143q-198 0 -350 88q-178 102 -178 272zM385 473q-15 -80 115 -127q93 -37 200 -37q141 0 246 60q125 67 152 200q6 30 6 52q0 57 -49 75q-71 27 -181 27q-137 0 -258 -47q-148 -56 -215 -166q-13 -20 -16 -37z M561 1266q-5 -26 28 -51t105 -48q118 -37 193 -37q78 0 141 41t80 111q6 33 0 66q-109 47 -295 47q-80 0 -147 -25q-93 -38 -105 -104z" />
<glyph unicode="9" horiz-adv-x="1624" d="M94 346q12 61 88 125t133 64q54 0 88 -70q57 -112 74 -131q66 -72 182 -72q166 0 316 156q136 142 176 313q-237 -156 -543 -156q-211 0 -332 95q-131 98 -131 282q0 47 13 117q56 276 305 490q253 215 524 215q293 0 453 -244q104 -152 104 -404q0 -146 -37 -325 q-88 -453 -372 -692q-278 -236 -574 -236q-210 0 -323 104q-107 93 -142 304q-9 36 -2 65zM512 1077q0 -94 158 -94q117 0 266 64q160 60 244 147q-61 192 -258 192q-123 0 -263 -90q-147 -102 -147 -219z" />
<glyph unicode=":" horiz-adv-x="724" d="M66 276q0 40 6 74q37 178 270 178q72 0 100 -22q52 -43 52 -154q0 -35 -11 -88q-44 -221 -247 -221q-89 0 -123 49q-47 68 -47 184zM250 973q0 35 6 69q37 181 270 181q69 0 99 -23q51 -45 51 -158q0 -49 -8 -90q-43 -217 -244 -217q-91 0 -125 51q-49 67 -49 187z" />
<glyph unicode=";" horiz-adv-x="794" d="M-129 -193q0 43 33 87q134 197 172 274q29 59 110 293q41 127 185 127q72 0 124 -39t52 -100q0 -94 -135 -334q-107 -194 -205 -316q-76 -94 -191 -94q-55 0 -96 27q-49 27 -49 75zM256 989q0 39 6 74q37 178 270 178q71 0 99 -22q51 -45 51 -156q0 -40 -10 -92 q-40 -217 -244 -217q-91 0 -127 51q-45 65 -45 184z" />
<glyph unicode="&#x3c;" horiz-adv-x="1286" d="M80 752q0 106 110 200q96 83 390 353q138 151 391 407q104 96 203 96q69 0 113 -44.5t44 -112.5q0 -97 -96 -201q-65 -65 -238 -221q-139 -124 -237 -217q-49 -48 -205 -207l160 -236q76 -109 239 -301q34 -40 72 -78q38 -50 29 -98q-15 -80 -113 -160q-94 -79 -176 -79 q-51 0 -88 49q-32 55 -51 92q-66 101 -146 203q-140 157 -354 428q-47 62 -47 127z" />
<glyph unicode="=" horiz-adv-x="1490" d="M74 487q0 33 6 68q15 76 51 131q47 68 115 68q53 0 155 -6q119 -7 154 -7q92 0 315 19q211 18 316 18q155 0 155 -141q0 -43 -8 -84q-38 -188 -297 -188q-15 0 -151 4q-132 4 -150 4q-179 0 -385 -15l-178 -12q-98 0 -98 141zM180 1012q0 34 6 69q15 77 54 138 q52 73 120 73q61 0 152 -8t154 -8q80 0 286 16q204 19 285 19q79 0 126.5 -45.5t47.5 -118.5q0 -96 -80 -176q-46 -49 -112 -64q-33 -8 -127 -8q-79 0 -142 2q-126 4 -139 4q-175 0 -369 -12l-172 -12q-90 0 -90 131z" />
<glyph unicode="&#x3e;" horiz-adv-x="1263" d="M-51 8q0 98 98 199q92 92 236 219q158 137 239 215q123 123 207 211q-6 10 -25 37.5t-59.5 85t-77.5 110.5q-79 117 -239 304l-70 77q-39 47 -29 97q14 78 113 161q94 82 178 82q50 0 86 -51q32 -55 51 -92q61 -93 144 -203q126 -142 354 -430q49 -67 49 -135 q0 -102 -110 -190q-231 -188 -572 -545q-67 -74 -209 -215q-103 -95 -202 -95q-69 0 -115.5 45.5t-46.5 112.5z" />
<glyph unicode="?" horiz-adv-x="1691" d="M334 1305q0 61 18 153q31 160 260 291q198 119 455 119q111 0 303 -29q159 -21 236 -110q72 -85 90 -246q15 -116 -13 -254q-30 -154 -104 -250q-89 -121 -231 -121l-154 4q-239 0 -254 -67l-6 -109q-15 -80 -111 -133q-80 -51 -170 -51q-131 0 -131 121q0 39 15 112 q41 208 75 299q40 111 281 148l237 16q185 18 197 90q10 50 -39 131q-47 84 -194 84q-188 0 -232 -6q-163 -18 -178 -98q-3 -14 -7 -63t-7 -64q-9 -47 -92 -94q-70 -37 -125 -37q-119 0 -119 164zM461 106q0 38 6 76q34 178 266 178q76 0 101 -22q53 -44 53 -156 q0 -51 -8 -92q-44 -215 -248 -215q-91 0 -125 49q-45 62 -45 182z" />
<glyph unicode="@" horiz-adv-x="2140" d="M41 362q0 137 27 281q141 698 563 1053q358 299 751 299q394 0 603 -250q112 -136 112 -387q0 -137 -35 -318q-127 -634 -397 -993q-202 -272 -336 -272q-246 0 -246 368q0 81 15 183q-104 -66 -207 -66q-146 0 -248 111q-100 109 -100 260q0 156 112 323q93 139 240 252 q210 160 360 160q57 0 109 -25q77 68 195 68q106 0 106 -82q0 -33 -18 -100q-30 -87 -35 -105q-77 -265 -125 -518q-47 -230 -47 -358q79 155 159 379q84 236 113 385q21 105 21 184q0 177 -115 301q-113 125 -295 125q-172 0 -379 -139q-198 -136 -348 -379 q-140 -229 -186 -459q-30 -171 -4 -297q24 -127 75 -192q56 -68 158 -121q23 -10 57 -47q18 -30 9 -78q-14 -75 -89 -156q-77 -80 -153 -80q-22 0 -43 9q-199 77 -293 270q-86 174 -86 411zM858 713q-15 -90 37 -90q21 0 70 30q220 144 247 269q15 79 -41 79q-91 0 -192 -98 q-100 -97 -121 -190z" />
<glyph unicode="A" horiz-adv-x="1554" d="M-184 86q0 7 4 23q3 20 63 137q124 236 357 551q266 352 399 526q122 175 164 309q2 17 28 70q76 104 244 104q184 0 193 -151q39 -544 106 -905l72 -371q40 -196 37 -219q-15 -75 -119 -135q-92 -56 -172 -56t-98 66q-14 49 -23 151q-10 126 -16 152h-39h-20 q-113 0 -324 -29q-270 -36 -346 -41q-57 -100 -64 -110q-23 -41 -51 -115q-43 -113 -172 -113q-77 0 -145 41q-78 47 -78 115zM555 684q93 3 225 23q172 21 228 24q-26 221 -62 430q-48 -60 -201 -235q-127 -145 -190 -242z" />
<glyph unicode="B" horiz-adv-x="1599" d="M8 35q0 17 35 151q160 625 227 1104q-61 21 -61 133q0 28 4 74q34 166 139 201q145 45 459 45q258 0 426 -76q219 -100 219 -307q0 -47 -8 -88q-41 -188 -219 -314q219 -148 219 -378q0 -40 -10 -95q-65 -317 -437 -452q-239 -88 -639 -109q-50 -2 -99.5 -5t-71 -4 t-25.5 -1q-158 0 -158 121zM444 311q23 -2 68 -2q516 0 551 170q4 28 4 43q0 116 -145 172q-104 37 -258 37q-88 0 -148 -8q-19 -97 -72 -412zM588 1120q217 6 346 25q132 18 153 127q5 35 5 37q0 65 -64 86q-40 12 -133 12q-97 0 -252 -29q-31 -124 -49 -223z" />
<glyph unicode="C" horiz-adv-x="1531" d="M14 475q0 121 29 289q95 474 416 725q313 246 606 246q174 0 278.5 -68t153.5 -219q35 -107 35 -262q0 -32 -4 -64q-17 -80 -84.5 -128t-155.5 -48q-112 0 -112 164v41q2 18 2 41q0 37 -9 49q-59 102 -176 102q-131 0 -284 -118q-143 -110 -242 -283q-107 -186 -107 -354 q0 -152 84 -256q92 -109 248 -109q116 0 228 47q54 19 161 84q76 43 111 43q60 0 104 -59q45 -57 45 -129q0 -58 -32 -96q-22 -28 -78 -70q-131 -101 -316 -160q-168 -49 -333 -49q-268 0 -445 219q-123 159 -123 422z" />
<glyph unicode="D" horiz-adv-x="1507" d="M-6 4q0 11 4 39q29 110 102 403q107 449 168 857q-102 21 -102 161q0 176 172 228q189 57 473 57q295 0 475 -133q189 -145 189 -406q0 -64 -17 -157q-85 -429 -479 -793q-409 -373 -834 -373q-151 0 -151 117zM438 313q227 67 410 262q181 196 227 420q10 62 10 103 q0 139 -86 216t-241 77q-40 0 -119 -11q-56 -223 -111 -530z" />
<glyph unicode="E" horiz-adv-x="1220" d="M-27 84q32 162 111 518q96 433 113 520q24 131 41 248q16 109 41 248q27 141 243 141q48 0 140 -12q94 -12 143 -12q17 0 143 4q94 6 144 6q168 0 168 -156q0 -95 -50 -172q-59 -86 -149 -86q-49 0 -199 17q-138 16 -198 16h-72q-36 -133 -62 -277q14 -2 41 -2 q50 0 170 19q114 18 170 18q103 0 103 -166q0 -36 -6 -63q-20 -95 -67 -137.5t-134 -42.5l-168 8q-46 0 -176 -19q-36 -206 -55 -337q85 3 245 26q170 25 236 25q69 0 108 -51.5t39 -128.5q0 -90 -47 -152q-46 -70 -135 -76q-54 -4 -279 -4q-61 0 -190 -18 q-126 -21 -190 -21q-71 0 -142 23q-82 30 -82 80q0 8 2 16z" />
<glyph unicode="F" horiz-adv-x="1196" d="M-12 18q41 208 110 521q98 445 113 520q15 83 39 246q16 97 43 247q27 144 244 144q45 0 137 -15q91 -12 139 -12q17 0 139 4q126 4 140 4q168 0 168 -147q0 -97 -48 -176q-58 -88 -151 -88q-59 0 -193 16q-113 16 -176 16h-18h-66q-37 -138 -67 -303l-25 -133 q55 0 191 19q123 20 190 20q123 0 123 -174q0 -31 -6 -61q-21 -107 -82 -146q-47 -33 -160 -33q-55 0 -98 2q-64 3 -99 3q-59 0 -120 -7q-21 -151 -64 -403q-15 -83 -102 -129q-73 -37 -164 -37q-79 0 -113 26q-27 20 -26 54q0 11 2 22z" />
<glyph unicode="G" horiz-adv-x="1609" d="M12 471q0 126 31 287q95 474 416 725q313 246 606 246q180 0 283 -56q115 -58 163 -205q33 -90 33 -190q0 -35 -6 -59q-13 -74 -79 -124.5t-142 -50.5q-139 0 -139 91v22q2 12 2 27q0 66 -54.5 109.5t-128.5 43.5q-206 0 -405 -227q-180 -204 -221 -424q-11 -64 -11 -106 q0 -154 82 -252q89 -109 244 -109q372 0 387 275q-328 -17 -387 -17q-74 0 -117 47.5t-43 122.5q0 90 56 164q55 76 141 76q61 0 108 -2q49 -2 113 -2q66 0 201 12q138 12 203 12q73 0 112 -47t39 -125q0 -96 -53 -170q-37 -224 -127 -430q-83 -179 -309 -246 q-207 -59 -371 -59q-317 0 -500 223q-127 157 -127 418z" />
<glyph unicode="H" horiz-adv-x="1472" d="M-6 14q0 19 2 29l59 231q153 605 213 1039q3 47 29 246q12 70 106 110q78 35 154 35q141 0 141 -86q0 -33 -30 -135q-16 -57 -39 -146q-40 -161 -97 -479q50 -4 80 -4q56 0 353 37q64 276 143 670q1 7 6 28.5t8 34.5q18 68 107 109q65 32 149 32q144 0 144 -90 q0 -19 -23 -90l-33 -92q-95 -306 -180 -725q-25 -132 -73.5 -377.5t-69.5 -355.5q-12 -70 -105 -111q-73 -33 -151 -33q-144 0 -144 101q0 21 2 33q12 57 117 458h-76h-48q-137 0 -273 -14q-20 -127 -74 -406q-12 -65 -108 -106q-81 -35 -156 -35q-133 0 -133 92z" />
<glyph unicode="I" horiz-adv-x="1345" d="M-33 51q0 38 8 74q16 80 54 135q50 80 114 80q52 0 123 -8q73 -8 123 -8q78 348 115 522q64 300 102 526l-108 -10q-60 -8 -109 -8q-106 0 -106 182q0 53 8 94q24 133 123 133q20 0 61 -6q12 -1 28 -3t25 -3t13 -2h106q95 0 289 18q204 19 289 19q78 0 127 -53t49 -134 q0 -94 -58 -158.5t-149 -64.5q-68 0 -115 2q-59 2 -112 2q-85 -321 -195 -1038q6 1 38 4t60 6q62 6 99 6q72 0 115.5 -44.5t43.5 -114.5q0 -25 -6 -49q-41 -203 -297 -203q-76 0 -135 2t-133 2q-163 0 -344 -12l-160 -15q-86 0 -86 127z" />
<glyph unicode="J" horiz-adv-x="1468" d="M90 223q0 130 37 303q27 148 59 195q49 67 189 67q147 0 147 -100q0 -36 -18 -100q-6 -26 -13 -54l-9.5 -38t-2.5 -11q-14 -77 -14 -100q0 -55 104 -55q44 0 62 2q177 15 278 225q59 121 105 358q35 165 51 383q-66 2 -205 2q-75 0 -198 -14q-132 -12 -199 -12 q-107 0 -107 180q0 52 9 98q24 131 122 131q37 0 113 -6t121 -6q83 0 287 19q194 18 290 18q77 0 128 -53.5t51 -132.5q0 -67 -37 -125q-11 -60 -29 -156.5t-25 -132.5q-92 -474 -217 -750q-184 -417 -737 -417q-258 0 -319 135q-23 58 -23 147z" />
<glyph unicode="K" horiz-adv-x="1540" d="M-12 -47q0 12 2 18q41 208 110 521q96 433 113 520q13 74 39 248q19 114 43 247q12 72 108 113q73 33 156 33q135 0 135 -82q0 -33 -24 -109q-32 -97 -35 -110q-42 -148 -90 -398l-13 -57q235 227 519 506q48 54 237 248q40 37 90 37q71 0 138 -58q69 -54 69 -125 q0 -40 -37 -80q-2 -1 -94 -81.5t-160 -137.5q-208 -191 -506 -495q102 -15 160 -125q24 -43 66 -197q27 -98 57 -98q20 0 78 61q59 62 106 62q62 0 103 -62q37 -58 37 -129q0 -88 -74 -147q-78 -61 -191 -119q-127 -59 -200 -59q-94 0 -162 102q-32 45 -96 188 q-47 103 -86 103q-56 0 -166 -70q-6 -63 -27 -182q-34 -166 -278 -166q-127 0 -127 80z" />
<glyph unicode="L" horiz-adv-x="1239" d="M-2 74q0 58 12 125q4 19 96 450q82 368 99 451q7 38 41 252q20 125 43 252q12 70 106 110q78 35 156 35q137 0 137 -86q0 -7 -41 -150q-103 -365 -231 -1191q90 13 297 59q178 39 293 39q137 0 137 -150q0 -95 -64 -174q-52 -73 -151 -88q-96 -16 -316 -28 q-80 -6 -252 -43q-166 -35 -247 -35q-115 0 -115 172z" />
<glyph unicode="M" horiz-adv-x="2082" d="M-31 59q50 146 54 158q98 310 176 696l135 709q15 69 115 109q73 24 157 24q153 0 193 -67q19 -37 59 -209q40 -186 166 -850q234 281 489 854q29 55 76 190q9 48 121 74q82 18 152 18q173 0 176 -88v-13q0 -36 -8 -103q-3 -22 -10.5 -61.5t-10.5 -57.5 q-31 -236 -72 -520q-44 -335 -57 -523q0 -93 -18 -274q-15 -81 -113 -129q-79 -39 -172 -39q-115 0 -115 86q0 18 17 98l24 131q34 156 76 625q-290 -380 -451 -684q-30 -68 -67 -137q-30 -52 -115 -80q-71 -23 -135 -23q-138 0 -141 86q7 165 8 211q-3 362 -107 738 q-94 -362 -147 -625q-17 -109 -55 -289q-21 -70 -109 -110q-73 -31 -149 -31q-64 0 -103 20q-41 23 -41 65q0 10 2 21z" />
<glyph unicode="N" horiz-adv-x="1617" d="M-20 8q0 9 4 33q16 66 59 227q152 614 211 1039q5 67 31 245q12 70 110 113q79 39 160 39q110 0 125 -125q21 -152 45 -229q35 -95 117 -197q148 -187 243 -352q89 363 129 553q15 86 50 260q21 70 106 110q67 33 150 33q143 0 143 -92q0 -39 -37 -143q-24 -66 -51 -148 q-77 -249 -129 -522l-160 -823q-15 -69 -106 -109q-78 -35 -150 -35q-77 0 -112 28q-31 25 -31 74v11q6 40 12 117v9q0 192 -123 429q-78 140 -244 375q-79 -459 -153 -871q-12 -66 -111 -106q-81 -35 -155 -35q-133 0 -133 92z" />
<glyph unicode="O" horiz-adv-x="1579" d="M59 326q0 123 31 284q88 446 277 738q259 397 645 397q315 0 471 -203q80 -106 80 -295q0 -108 -31 -266q-15 -74 -49 -203q-156 -556 -398 -758q-244 -200 -553 -200q-473 0 -473 506zM403 510q0 -287 222 -287q211 0 393 273q142 214 192 460q13 63 13 113 q0 268 -260 268q-199 0 -369 -262q-130 -207 -176 -436q-15 -65 -15 -129z" />
<glyph unicode="P" horiz-adv-x="1388" d="M-20 -10q0 11 4 35q50 186 100 387q124 503 170 860q-64 6 -64 131q0 34 7 78q30 157 133 192q83 27 260 47q170 21 264 21q547 0 547 -445q0 -74 -19 -174q-71 -350 -376 -487q-269 -122 -545 -146q-68 -378 -80 -446q-15 -70 -111 -111q-75 -34 -155 -34 q-135 0 -135 92zM522 852q209 16 359 72q161 59 188 213q10 58 10 94q0 96 -59.5 136t-192.5 40q-92 0 -194 -21q-62 -249 -111 -534z" />
<glyph unicode="Q" horiz-adv-x="1746" d="M63 500q0 110 27 239q111 557 447 838q286 238 604 238q315 0 483 -201q92 -112 92 -309q0 -104 -28 -250q-108 -542 -381 -840q28 -82 28 -104q0 -77 -106 -164q-109 -92 -182 -92q-44 0 -68 43q-6 10 -33 79q-152 -51 -305 -51q-336 0 -491 242q-87 134 -87 332z M391 639q0 -142 83 -221.5t237 -79.5q47 0 88 8q-35 68 -82 143q-69 112 -84 144q-15 26 -8 59q16 80 112 154q104 78 178 78q46 0 66 -33q45 -61 90 -162q75 -157 80 -168q87 109 152 254q65 157 65 289q0 138 -75.5 219.5t-219.5 81.5q-252 0 -469 -260 q-213 -251 -213 -506z" />
<glyph unicode="R" horiz-adv-x="1486" d="M-29 -23q0 40 47 211q24 97 62 224q117 487 168 868q-45 26 -45 117q0 35 8 71q30 169 137 199q230 68 524 68q547 0 547 -441q0 -72 -16 -166q-82 -423 -574 -577q3 -21 10 -57t9 -50q14 -61 33 -100q12 -27 37 -27q44 0 129 58q86 59 120 59q63 0 93 -61 q28 -58 28 -127q0 -128 -96 -187q-83 -48 -201 -90q-122 -43 -200 -43q-131 0 -189 119q-32 69 -61 227q-21 121 -58 121q-17 0 -47 -10l-10 -64q-25 -149 -51 -280q-16 -73 -113 -113q-81 -35 -156 -35q-135 0 -135 86zM514 846q210 12 377 67q164 59 194 217q13 60 13 99 q0 93 -58.5 134.5t-189.5 41.5q-101 0 -225 -31q-59 -220 -111 -528z" />
<glyph unicode="S" horiz-adv-x="1593" d="M27 184q-4 22 -4.5 43t4.5 43q14 75 71.5 130t128.5 55q69 0 121 -58q19 -20 109 -110q77 -62 184 -62q139 0 301 84q175 88 232 217l2 9q1 4 1 7q0 44 -149 44q-29 0 -172 -11q-127 -10 -172 -10q-234 0 -377 70q-180 88 -180 274q0 49 8 90q61 304 301 500 q244 197 545 197t430 -170q27 -34 27 -74q0 -11 -2 -22q-16 -70 -70 -138q-64 -82 -125 -82q-30 0 -80 29q-98 70 -252 70q-282 0 -381 -191q-4 -10 -8 -26q-2 -8 -2 -15q0 -60 111 -96q91 -31 182 -31q66 0 195 15q123 14 194 14q340 0 340 -277q0 -57 -14 -114 q-59 -299 -371 -516q-293 -203 -600 -203q-199 0 -336 70q-165 83 -192 245z" />
<glyph unicode="T" horiz-adv-x="995" d="M82 1462q0 31 6 58q18 90 74 114q15 6 67 7.5t150.5 7t198.5 18.5q56 9 225 49q129 33 209 33q82 0 141 -54.5t59 -133.5q0 -66 -43 -127q-48 -73 -157 -91q-47 -4 -201 -18q-61 -246 -129 -645q-83 -503 -113 -647q-15 -70 -110 -111q-78 -35 -158 -35q-131 0 -131 90 q0 17 2 27l102 404q119 500 172 872q-1 0 -13 -2.5t-43 -9.5t-62 -13q-66 -14 -115 -14q-66 0 -100 76q-31 64 -31 145z" />
<glyph unicode="U" horiz-adv-x="1550" d="M84 494q0 153 33 315q49 235 250 735q15 42 39 103q62 114 225 114q135 0 135 -94q0 -11 -4 -31q-14 -70 -62 -182q-37 -75 -84 -178q-136 -297 -176 -508q-22 -119 -22 -188q0 -240 237 -240q193 0 301 123q87 100 127 305q25 122 25 258q0 99 -14 268q-11 169 -11 246 v21q0 23 4 59q30 154 216 154q92 0 127 -78q26 -57 26 -149v-19l-4 -308l-2 140v-35q0 -451 -76 -715q-76 -265 -235 -456q-187 -217 -553 -217q-367 0 -455 247q-47 133 -47 310z" />
<glyph unicode="V" horiz-adv-x="1247" d="M117 1544q12 72 129 133q108 60 182 60q67 0 88 -62q36 -111 36 -358q0 -91 -5 -199q-4 -100 -4 -187q0 -122 8 -220q126 231 293 649q29 92 121 309q41 74 118 74q88 0 168 -45q86 -44 86 -109q0 -10 -2 -20q-5 -31 -67 -133q-82 -128 -88 -136q-131 -227 -265 -542 q-178 -437 -227 -553q-31 -77 -88 -197q-57 -112 -244 -112q-68 0 -104 22q-40 24 -43 94q-10 166 -10 331q0 196 14 390q2 39 2 117q0 233 -96 647q-3 15 -3 30q0 8 1 17z" />
<glyph unicode="W" horiz-adv-x="1945" d="M199 -35q0 19 2 29q63 306 63 694q0 192 -14 402l-2 24q-3 25 -9 84t-12 129q-14 176 -14 206v5q15 70 106 107q67 24 150 24q128 0 137 -90q0 -5 -6 -119q-4 -90 -14 -545q87 144 139 238q69 121 121 246q8 18 27.5 69.5t31.5 81.5q62 140 258 140q79 0 137 -27 q70 -34 82 -100q2 -61 19 -234q18 -209 67 -457l168 459q27 92 88 250q43 94 187 94q70 0 131 -28q60 -31 60 -81q0 -10 -3 -22q-3 -28 -63 -145q-16 -30 -44.5 -87.5t-35.5 -70.5q-275 -578 -400 -1048q-12 -63 -47 -195q-47 -150 -223 -150q-75 0 -131 33q-63 40 -63 107 q0 39 24 116q33 105 35 117q23 125 23 240q0 251 -113 649q-355 -525 -420 -842q-7 -51 -10 -112q-3 -67 -13 -109q-15 -71 -131 -123q-96 -45 -176 -45q-112 0 -112 86z" />
<glyph unicode="X" horiz-adv-x="1425" d="M27 74q3 21 18 45q6 8 156 211q178 245 286 399q-62 225 -151 483q-35 78 -88 238q-6 22 -2 43q14 73 112 127q86 47 164 47q92 0 113 -68q2 -13 35 -174q25 -126 78 -315q130 200 229 367q43 88 127 213q49 55 141 55q81 0 146 -39q69 -39 69 -96q0 -10 -2 -21 q-6 -28 -51 -90l-74 -90q-202 -272 -467 -688q47 -159 111 -346q77 -259 77 -317q0 -5 -1 -9q-15 -66 -117 -119q-89 -47 -164 -47q-72 0 -96 70q-24 79 -43 174q-2 12 -35 176q-57 -99 -215 -321q-53 -62 -152 -62q-77 0 -141 37q-65 39 -65 95q0 11 2 22z" />
<glyph unicode="Y" horiz-adv-x="1222" d="M168 1749q78 35 160 35q109 0 139 -86q17 -46 31 -117q19 -99 24 -117q51 -191 140 -458q119 254 208 479q26 90 99 252q41 65 141 65q81 0 152 -41q79 -43 79 -109v-10q-4 -37 -65 -145q-25 -47 -84 -151q-109 -207 -252 -541q-23 -52 -235 -547q-44 -104 -123 -266 q-44 -74 -156 -74q-80 0 -145 39q-77 43 -77 106q0 6 1 13q0 20 209 420q-117 434 -213 723l-78 215q-60 165 -60 195q0 70 105 120z" />
<glyph unicode="Z" horiz-adv-x="1323" d="M-49 78q0 135 59 215q59 81 406 512q254 316 391 520q-175 -4 -262 -10q-151 -14 -151 -17h1q-84 0 -84 119q0 31 11 88q41 203 149 203l70 -10q53 -6 131 -6q92 0 256 20q172 21 256 21q151 0 151 -154q0 -68 -34 -132t-91 -99q-291 -354 -764 -1020q19 1 242 39 q150 24 236 24q84 0 136 -53t52 -135q0 -15 -4 -47q-27 -144 -190 -168q-89 -14 -271 -23q-225 -11 -268 -14q-16 -2 -162 -25q-99 -18 -158 -18q-108 0 -108 170z" />
<glyph unicode="[" horiz-adv-x="1067" d="M-88 -283q0 31 6 66q118 495 119 498q80 343 135 622q75 389 78 408q44 245 53 401q0 24 6 70q14 85 64 147q58 76 137 76q261 0 389 8q5 1 40 4t65 6q64 9 104 9q123 0 123 -154q0 -28 -6 -55q-27 -125 -113 -172q-64 -37 -184 -37l-156 4q-45 0 -115 -4 q-83 -354 -163 -809q-25 -143 -73.5 -415t-70.5 -398q64 0 182 14q117 12 181 12q123 0 123 -147q0 -20 -7 -55q-21 -122 -94 -170q-56 -39 -182 -39q-12 0 -90 4q-39 2 -88 2q-51 0 -176 -16q-123 -19 -172 -19q-115 0 -115 139z" />
<glyph unicode="\" horiz-adv-x="1568" d="M213 1733q12 70 121 129q95 53 174 53q71 0 98 -62q23 -78 33 -114q31 -109 76 -234q176 -502 508 -1233q55 -112 73 -145q45 -89 60 -152q9 -34 6 -55q-15 -66 -123 -125q-94 -49 -170 -49q-29 0 -51.5 10t-38 23.5t-31 43t-24.5 53.5t-25 69q-30 94 -51 155 q-215 573 -242 643q-131 347 -256 639q-64 147 -82 185l-41 80q-20 48 -14 86z" />
<glyph unicode="]" horiz-adv-x="1189" d="M-63 -272q0 28 6 55q21 120 108 174q65 35 182 35q47 0 82 -2q37 -2 78 -2q49 0 115 4q72 301 164 809l143 813q-51 -3 -176 -15q-114 -12 -176 -12q-135 0 -135 152q0 27 6 57q24 124 106 170q58 37 174 37q6 0 84 -4q39 -2 86 -2q49 0 177 16q127 19 178 19 q116 0 116 -146q0 -30 -6 -57q-36 -155 -73 -311q-211 -907 -281 -1379q-15 -105 -33 -243q-2 -36 -10 -80q-34 -166 -152 -201q-43 -14 -256 -14q-34 0 -192 -11q-126 -12 -193 -12q-122 0 -122 150z" />
<glyph unicode="^" horiz-adv-x="1529" d="M201 1198q0 100 96 162q141 89 281 196q153 113 272 203q89 68 182 68q89 0 142 -86q53 -84 143 -172q53 -51 160 -158q57 -60 57 -137q0 -90 -76 -160t-168 -70q-79 0 -133 48q-20 20 -86 108q-71 88 -147 162q-91 -55 -215 -156q-158 -124 -213 -162t-115 -38 q-74 0 -127 58t-53 134z" />
<glyph unicode="_" horiz-adv-x="1691" d="M-125 -84q0 34 6 64q15 76 58 131q49 61 120 61q66 0 189 -6q126 -6 188 -6q113 0 391 16q276 19 392 19q90 0 149 -39q70 -43 70 -121q0 -105 -95 -182q-83 -68 -276 -68q-20 0 -188 4q-84 2 -189 2q-209 0 -467 -12l-233 -15q-115 0 -115 152z" />
<glyph unicode="`" />
<glyph unicode="a" horiz-adv-x="1462" d="M-152 41q0 50 56 201q93 240 295 528q268 368 360 496q79 119 137 317q23 86 109 137q71 45 166 45q183 0 192 -153q29 -488 115 -950q50 -235 59 -281q40 -197 40 -249q0 -9 -1 -13q-15 -77 -119 -135q-92 -56 -172 -56t-98 66q-16 87 -39 311q-462 23 -524 23h-88 q-27 -65 -51 -166q-34 -123 -43 -166q-34 -119 -174 -119q-84 0 -148 43q-72 47 -72 121zM528 692q71 -6 156 -6q82 0 217 6q-23 201 -59 424q-109 -136 -314 -424z" />
<glyph unicode="b" horiz-adv-x="1495" d="M-37 -43q0 21 37 160q164 619 240 1130q-66 21 -66 135q0 39 8 72q29 166 135 201q103 33 363 33q287 0 461 -82q225 -108 225 -336q0 -40 -10 -105q-34 -174 -193 -309q187 -117 187 -315q0 -38 -11 -95q-71 -357 -516 -489q-278 -84 -729 -84q-131 0 -131 84zM412 270 h57h29q146 0 266 27q196 40 217 141q2 14 2 35q0 139 -235 139q-128 0 -285 -37q-6 -41 -51 -305zM530 961q148 12 281 36q159 35 186 168q2 12 2 37q0 135 -237 135q-72 0 -154 -12q-38 -151 -61 -283z" />
<glyph unicode="c" horiz-adv-x="1425" d="M10 485q0 140 35 318q94 484 391 725q283 235 578 235q408 0 463 -407q2 -17 1.5 -31.5t-1.5 -26.5q-15 -64 -91 -131q-74 -65 -139 -65q-46 0 -86 69q-59 115 -74 134q-59 71 -153 71q-198 0 -377 -252q-147 -211 -190 -428q-13 -70 -13 -127q0 -140 62 -223 q72 -96 213 -96q106 0 239 115q131 116 197 116q63 0 121 -55q59 -56 59 -121q0 -38 -26 -86q-101 -171 -295 -266q-175 -88 -369 -88q-292 0 -449 244q-96 146 -96 376z" />
<glyph unicode="d" horiz-adv-x="1601" d="M23 25q0 28 43 196q155 598 229 1102q-102 21 -102 156q0 81 47 142.5t127 84.5q201 55 528 55q635 0 635 -563q0 -138 -33 -297q-88 -449 -448 -698q-320 -218 -799 -248q-79 -8 -109 -8q-118 0 -118 78zM469 352q280 35 432 140q190 132 242 385q18 102 18 186 q0 350 -342 350q-73 0 -155 -12q-48 -198 -195 -1049z" />
<glyph unicode="e" horiz-adv-x="1226" d="M-27 16q0 15 2 21q32 162 111 518q100 452 113 518q14 79 39 250q17 106 43 248q27 145 254 145q30 0 112 -16q71 -14 123 -14q15 0 125 4q86 6 125 6q145 0 145 -148q0 -36 -8 -69q-12 -77 -57 -131q-49 -64 -121 -64q-57 0 -188 16q-139 17 -187 17h-10 q-39 -153 -59 -273l-25 -122q47 -7 84 -7q60 0 199 19q126 20 196 20q117 0 117 -174q0 -32 -6 -59q-18 -98 -68.5 -137t-152.5 -39q-58 0 -101 2q-86 4 -96 4q-49 0 -238 -23q-8 -49 -32 -211q70 4 211 29q151 23 204 23q68 0 105 -58q31 -48 31 -118q0 -15 -5 -60 q-40 -180 -268 -180q-47 0 -84 2q-35 2 -78 2q-71 0 -194 -20q-126 -21 -193 -21q-61 0 -108 21q-60 28 -60 79z" />
<glyph unicode="f" horiz-adv-x="1202" d="M-25 -12q31 157 111 520q98 445 113 520q15 82 39 246q17 106 43 248q27 147 254 147q39 0 110 -14q77 -15 125 -15q15 0 58.5 2t64.5 3q110 4 123 4q149 0 149 -150q0 -27 -6 -67q-16 -84 -59 -132q-48 -63 -121 -63q-71 0 -186 14q-139 17 -187 17h-10 q-36 -137 -61 -273l-15 -75q63 -5 80 -5q60 0 199 19q129 20 200 20q65 0 91 -57q26 -45 26 -117q0 -30 -6 -57q-21 -104 -80 -145q-50 -33 -158 -33l-178 6q-50 0 -239 -23q-18 -140 -74 -481q-18 -81 -107 -125q-70 -37 -161 -37q-140 0 -140 83q0 9 2 20z" />
<glyph unicode="g" horiz-adv-x="1587" d="M29 422q0 111 28 260q114 565 424 846q265 241 561 241q208 0 308 -63q103 -62 178 -229q3 -6 3 -16q0 -14 -5 -36q-15 -68 -94 -135t-146 -67q-49 0 -74 32q-52 59 -63 66q-56 33 -168 33q-218 0 -403 -215q-161 -184 -205 -420q-15 -67 -15 -135q0 -152 64 -246 q76 -111 221 -111q138 0 266 58q94 40 115 143q40 219 41 223q-188 -10 -313 -10q-73 0 -115.5 47.5t-42.5 122.5q0 28 6 55q21 112 92 156q50 33 152 33q43 0 78 -2t75 -2q77 0 168 8t168 8q68 0 112 -51.5t44 -124.5q0 -59 -33 -154q-44 -141 -47 -151q-9 -50 -76 -340 q-53 -207 -338 -309q-210 -72 -460 -72q-294 0 -433 244q-73 125 -73 313z" />
<glyph unicode="h" horiz-adv-x="1333" d="M-33 41q0 35 27 129q21 68 39 135q149 588 211 1038q6 83 30 246q15 72 107 113q75 35 154 35q137 0 137 -86q0 -25 -23 -109l-33 -115q-35 -129 -69 -315l-17 -86l33 -2q54 0 305 31q44 180 86 389q7 53 37 211q21 71 109 108q72 35 151 35q142 0 142 -92 q0 -40 -37 -141q-30 -85 -51 -152q-81 -275 -162 -674q-86 -450 -129 -673q-15 -69 -109 -109q-70 -33 -149 -33q-138 0 -138 103q0 15 7 47q18 109 67 291q77 287 78 288h-68q-19 1 -38 1q-95 0 -199 -13q-24 -144 -98 -543q-12 -66 -111 -110q-76 -33 -156 -33 q-133 0 -133 86z" />
<glyph unicode="i" horiz-adv-x="708" d="M20 47q22 109 150 686q89 407 131 690q3 53 18 146q15 78 107 123q73 37 160 37q139 0 139 -89q0 -36 -33 -139l-45 -147q-81 -318 -184 -996q-9 -95 -43 -266q-21 -70 -113 -112q-70 -33 -153 -33q-76 1 -110 25q-26 19 -26 53q0 10 2 22z" />
<glyph unicode="j" horiz-adv-x="1386" d="M53 205q0 160 33 309q24 125 201 125q164 0 164 -127q0 -16 -11 -88q-10 -65 -10 -78q0 -34 19 -45.5t88 -11.5q52 0 75 2q145 12 222 151q46 82 81 265q42 212 42 481q0 34 -1 69h-28q-138 0 -310 -4q-15 -3 -86 -6q-35 -2 -83 -2q-119 0 -119 150q0 27 6 57 q15 80 61 135q53 68 127 68q54 0 127 -8q96 -7 127 -7q54 0 197 13q132 12 199 12q79 0 128.5 -52.5t49.5 -131.5q0 -50 -25 -105q-41 -467 -90 -719q-43 -205 -86 -333q-89 -248 -305 -349q-168 -79 -445 -79q-223 0 -295 75q-53 56 -53 234z" />
<glyph unicode="k" horiz-adv-x="1509" d="M-23 33q56 262 113 518q80 363 111 520q25 139 41 248t41 248q15 70 108 110q73 33 156 33q137 0 137 -84q0 -31 -20 -92l-31 -92q-52 -185 -90 -379l-2 -10q270 267 401 409q76 91 207 224q38 38 92 38q71 0 141 -55t70 -121q0 -43 -37 -80q-13 -12 -205 -182 q-178 -166 -432 -438q149 -3 211 -105q50 -80 53 -243q3 -174 25 -174q21 0 78 45q59 47 94 47q57 0 84 -56q27 -50 27 -114q0 -136 -117 -195q-189 -92 -344 -92q-130 0 -176 131q-6 14 -45 240q-21 129 -88 129q-42 0 -148 -41q-11 -108 -53 -344q-18 -71 -111 -115 q-73 -31 -153 -31q-78 0 -113 26q-27 20 -27 56q0 10 2 21z" />
<glyph unicode="l" horiz-adv-x="1122" d="M-16 84q5 23 24 111.5t53 247.5t70 331q91 417 135 696q2 15 10 64.5t13 83.5q12 67 108 111q71 32 156 32q135 0 135 -86q0 -5 -41 -145q-96 -329 -225 -1163q74 3 209 26q145 23 205 23q65 0 101 -49.5t36 -126.5q0 -20 -4 -56q-40 -184 -267 -184l-147 4 q-58 0 -178 -18q-127 -19 -180 -19q-73 0 -140 25q-74 30 -74 78q0 7 1 14z" />
<glyph unicode="m" horiz-adv-x="1980" d="M-49 18q7 36 37 121q35 96 43 123q76 252 151 639l135 678q15 72 99 107q67 28 145 28q138 0 178 -67q57 -94 142 -408q67 -244 104 -434q362 391 545 823q52 125 180 125q87 0 137 -33q64 -40 64 -110q0 -13 -4 -33q-29 -146 -52 -358q-21 -228 -38 -359 q-46 -326 -58 -512q-3 -94 -18 -282q-15 -72 -121 -119q-84 -37 -170 -37q-109 0 -109 84q0 27 15 98q3 18 14.5 70t18.5 86q41 209 81 665q-271 -336 -376 -516q-18 -40 -72 -143q-30 -49 -115 -80q-71 -22 -133 -22q-140 0 -143 88q0 28 6 77q4 78 4 80q1 23 1 47 q0 249 -87 529q-93 -365 -145 -615q-11 -79 -60 -309q-17 -64 -108 -106q-73 -31 -150 -31q-82 0 -116 26q-27 20 -27 57q0 11 2 23z" />
<glyph unicode="n" horiz-adv-x="1470" d="M-14 -41q0 9 4 37q6 20 57 221q149 579 211 1038q3 31 31 246q15 87 114 137q77 39 177 39q176 0 176 -114q0 -9 -4 -37q-3 -6 0 -45q3 -144 90 -322q31 -61 155 -293q33 130 105 457q8 74 45 244q17 67 106 108q72 35 154 35q141 0 141 -92q0 -38 -41 -150 q-14 -47 -53 -157q-86 -291 -160 -668q-44 -241 -127 -666q-15 -66 -90 -106q-67 -31 -137 -31q-73 0 -127 31q-55 38 -55 102v7q0 25 10 120q8 68 8 121q-3 196 -71 385q-45 121 -156 348q-53 -320 -166 -944q-15 -66 -111 -110q-76 -33 -155 -33q-131 0 -131 92z" />
<glyph unicode="o" horiz-adv-x="1720" d="M33 449q0 107 24 239q114 563 449 842q285 237 600 237q313 0 477 -200q92 -112 92 -312q0 -115 -26 -254q-56 -274 -156 -495q-130 -284 -322 -426q-269 -199 -581 -199q-315 0 -471 240q-86 130 -86 328zM362 592q0 -136 78.5 -217.5t218.5 -81.5q261 0 449 215 q158 187 213 461q8 47 8 100q0 135 -76.5 211t-220.5 76q-245 0 -463 -262q-207 -251 -207 -502z" />
<glyph unicode="p" horiz-adv-x="1492" d="M-2 31q0 14 49 211q110 444 166 714q3 14 53 369q-69 0 -69 90q0 43 14 103q35 170 141 200q146 41 418 41q314 0 498 -112q213 -133 213 -392q0 -69 -15 -145q-80 -409 -432 -555q-279 -120 -577 -141q-31 -157 -62 -326q-12 -67 -108 -111q-74 -32 -158 -32 q-131 0 -131 86zM518 776q216 12 383 70q197 64 240 276q6 30 6 60q0 227 -399 227q-33 0 -107 -4q-65 -272 -123 -629z" />
<glyph unicode="q" horiz-adv-x="1681" d="M37 348q0 122 31 291q88 444 321 758q292 383 703 383q314 0 471 -201q79 -104 79 -295q0 -116 -30 -266q-83 -411 -244 -696q89 -190 89 -262q0 -10 -1 -17q-15 -66 -117 -149q-104 -84 -168 -84q-43 0 -77 61q-12 23 -37 98q-178 -112 -445 -112q-173 0 -307 51 q-163 64 -221 184q-47 103 -47 256zM383 541q0 -289 242 -289q149 0 280 84q-20 44 -74 129q-51 78 -75 125q-17 33 -11 59q15 77 115 154q104 78 178 78q49 0 92 -76q11 -24 32.5 -70.5t23.5 -50.5q121 245 121 416q0 276 -277 276q-193 0 -309 -96q-112 -93 -209 -285 q-88 -175 -117 -319q-12 -70 -12 -135z" />
<glyph unicode="r" horiz-adv-x="1501" d="M-31 -33q0 9 4 33q71 272 101 393q122 503 170 864q-68 15 -68 132q0 33 6 67q34 169 144 199q166 41 444 41q308 0 483 -117q191 -132 191 -387q0 -65 -17 -162q-77 -392 -532 -536q0 -5 -2 -49t-2 -62q0 -113 74 -113q46 0 116 33q78 35 111 35q96 0 96 -154 q0 -160 -131 -215q-197 -84 -360 -84q-85 0 -131 37q-80 64 -103 141q-16 62 -16 187q0 30 -4 108q-9 25 -35 25q-22 0 -76 -23q-27 -172 -61 -337q-15 -68 -113 -111q-78 -35 -156 -35q-133 0 -133 90zM504 782q219 6 393 56q173 50 203 200q10 52 10 86q0 230 -354 230 q-54 0 -140 -11q-59 -242 -112 -561z" />
<glyph unicode="s" horiz-adv-x="1595" d="M14 266q0 24 6 45q65 336 238 336q55 0 113 -37q54 -39 54 -83q0 -6 -1 -13q-3 -6 -14 -32t-19 -44q-4 -12 -4 -22q0 -62 137 -105q108 -30 195 -30q138 0 237 51q124 65 148 192q8 31 8 58q0 64 -57 84q-92 38 -330 53q-238 12 -336 43q-164 52 -223 201q-18 46 -18 102 q0 38 8 80q56 266 266 428q207 151 473 151q155 0 317 -51q215 -68 215 -180q0 -76 -79 -174q-81 -96 -154 -96q-34 0 -49 37q-14 55 -137 83q-83 21 -168 21q-94 0 -174 -27q-112 -35 -121 -100q-1 -4 -1 -8q0 -35 70 -66q112 -47 373 -71q255 -24 342 -70 q154 -77 154 -277q0 -219 -123 -450q-127 -242 -311 -318q-122 -47 -418 -65q-27 -2 -70 -2q-239 0 -393 115t-154 241z" />
<glyph unicode="t" horiz-adv-x="1099" d="M55 1556q0 37 6 64q27 141 134 141q49 0 143 -6q99 -6 147 -6q105 0 299 16q209 17 299 17q92 0 158 -51q76 -58 76 -142q0 -76 -64 -143q-45 -51 -118 -66q-39 -6 -131 -8h-13q-39 0 -139 8q-52 -227 -125 -641q-72 -438 -111 -641q-12 -67 -110 -110q-76 -33 -156 -33 q-135 0 -135 88q0 11 35 145q176 661 246 1184l-310 -18q-65 0 -100 65q-31 60 -31 137z" />
<glyph unicode="u" horiz-adv-x="1560" d="M72 440q0 154 39 332q28 164 129 488q21 90 96 339q46 125 194 125q142 0 142 -104q0 -22 -6 -49q-11 -57 -72 -240q-85 -252 -90 -268q-45 -148 -70 -270q-28 -143 -28 -226q0 -268 251 -268q363 0 455 467q29 155 29 346q0 92 -2 205q-2 63 -1.5 114t1.5 91 q5 94 59 155.5t143 61.5q72 0 116 -43t44 -115l-12 -186q-8 -201 -14 -291q-8 -156 -35 -293q-86 -435 -262 -647q-220 -270 -633 -270q-301 0 -395 186q-78 147 -78 360z" />
<glyph unicode="v" horiz-adv-x="1388" d="M51 1499q15 74 142 133q111 54 190 54q33 0 55.5 -13.5t36 -44.5t20 -62.5t13.5 -86.5l20 -154q90 -551 107 -672q273 477 430 860q7 30 45 107q37 70 115 70q81 0 170 -56q87 -57 87 -123q0 -8 -1 -16q-6 -30 -82 -149q-38 -57 -103 -158q-136 -223 -292 -524 q-88 -194 -347 -703q-61 -113 -245 -113q-146 0 -146 119q1 65 2 136.5t1.5 109.5t0.5 55q0 586 -125 955l-57 141q-38 91 -38 126q0 5 1 9z" />
<glyph unicode="w" horiz-adv-x="1894" d="M186 53q25 139 41 250q41 289 47 594q1 47 1 92q0 195 -11 348q0 3 -1 15t-4 40.5t-5 55.5q-10 92 -10 121q0 22 2 30q15 63 100 103q70 31 141 31q141 0 150 -93q-2 -72 -8 -213q-9 -255 -13 -454q137 199 162 237q81 134 107 260q3 15 8 65t8 64q30 152 250 152 q213 0 213 -123q0 -35 -25 -121q-7 -28 -15.5 -58.5t-12 -45t-4.5 -19.5q-9 -40 -9 -79q0 -87 33 -199q11 -37 34.5 -108.5t25.5 -79.5l170 471q18 62 90 251q44 93 184 93q71 0 131 -31q62 -34 62 -83q0 -10 -3 -20q-2 -20 -57 -133l-74 -143q-235 -505 -374 -1061 q-30 -141 -47 -209q-46 -149 -238 -149q-80 0 -145 35q-74 41 -74 106q0 42 26 121q8 27 17 57t13.5 45.5t6.5 22.5q19 93 19 176q0 118 -33 244q-8 37 -74 239q-145 -211 -194 -293q-96 -166 -125 -317q-10 -46 -13 -119q-3 -74 -12 -112q-12 -75 -149 -127 q-107 -39 -199 -39q-61 -1 -89 27q-24 24 -25 69q0 7 1 14z" />
<glyph unicode="x" horiz-adv-x="1300" d="M-51 92q4 25 18 45q22 28 168 234q211 288 350 491q-78 254 -147 455q-36 86 -78 209q-5 21 -2 45q16 74 115 125q89 47 164 47q92 0 110 -68q16 -81 29 -141q34 -171 65 -285q97 147 187 303q22 43 96 160q50 53 141 53q78 0 146 -39q69 -39 69 -95q0 -10 -2 -21 q-3 -19 -20 -43q-158 -215 -264 -361q-114 -165 -236 -352l123 -377q86 -286 86 -344v-6q-15 -69 -117 -121q-89 -47 -164 -47q-71 0 -98 76q-4 16 -13.5 62.5t-15.5 70.5q-15 77 -63 278l-139 -233q-89 -145 -156 -215q-52 -55 -149 -55q-76 0 -140 34q-65 39 -65 94 q0 10 2 21z" />
<glyph unicode="y" horiz-adv-x="1236" d="M104 1544q3 70 99 129q80 51 159 51q74 0 109 -65q26 -48 49 -117q9 -26 19.5 -56t15 -44.5t6.5 -20.5q60 -149 187 -420q129 253 219 453q24 74 102 236q43 67 143 67q82 0 150 -39q85 -46 82 -116q-3 -36 -72 -150q-39 -61 -96 -154q-120 -212 -277 -536l-262 -545 q-53 -117 -133 -262q-50 -74 -151 -74q-77 0 -148 41q-78 44 -78 114v5q0 17 13 43q0 1 88 154q139 240 221 387q-122 268 -283 581q-61 98 -153 287q-9 29 -9 45v6z" />
<glyph unicode="z" horiz-adv-x="1282" d="M-23 23q0 45 9 92q17 79 53 127l414 516q236 299 389 532q-167 -3 -314 -12h-1h-1h-1h-1h-1h-1l-1 -1h-1h-2h-1h-1h-1h-1h-1h-1h-1h-1h-1h-1l-1 -1h-1h-1h-1h-1h-1h-1h-1h-1h-1h-1h-1h-1h-1l-1 -1h-1h-1h-1h-1h-1l-136 -11q-104 0 -104 176q0 57 8 98q27 133 123 133 q40 0 108 -8q77 -6 119 -6q96 0 283 18q198 19 282 19q78 0 124 -51t46 -132q0 -88 -71 -174q-233 -269 -811 -1081q60 3 215 18q138 15 215 15q83 0 131.5 -52t48.5 -133q0 -33 -2 -51q-23 -107 -111 -149q-58 -27 -184 -27q-19 0 -137 4t-135 4q-70 0 -211 -12 q-129 -14 -207 -14q-105 0 -105 164z" />
<glyph unicode="{" horiz-adv-x="1691" d="M39 719q0 43 8 84q44 209 178 209q12 0 66 -4q58 -7 61 -7q82 -6 187 -6q82 0 340 17q231 18 344 18q81 0 137.5 -49t56.5 -123q0 -94 -86 -174q-54 -47 -127 -59q-40 -9 -137 -9q-88 0 -160 2q-27 1 -84 3t-78 2q-169 0 -395 -13h-1h-1h-2h-1h-1h-1l-1 -1h-2h-1h-1h-1 h-1h-1h-2h-1h-1h-1h-1h-2h-1l-1 -1h-1h-1h-1h-2h-1h-1h-1h-1h-1h-1h-2h-1h-1l-1 -1h-1h-1h-1h-2h-1h-1h-1h-1h-1h-1h-2h-1h-1l-1 -1h-1h-1h-1h-1h-2h-1h-1h-1h-1h-1h-1h-1h-1l-1 -1h-2h-1h-1h-1h-1h-1h-1h-1h-1h-1h-1h-2h-1h-1l-1 -1h-1h-1h-1h-1h-1h-1h-1h-1h-1h-1h-1h-1 h-1h-1h-1l-2 -1h-1h-1h-1h-1h-1h-1h-1h-1h-1h-1h-1h-1h-1h-1l-97 -7q-94 0 -94 123zM434 -119q0 103 96 172q89 60 312 203q166 120 305 215q53 39 108 39q70 0 123 -59q52 -58 52 -134q0 -96 -93 -165q-49 -37 -260 -164q-68 -42 -184 -129q-37 -28 -78 -59t-66 -50 t-38 -29q-58 -34 -107 -34q-72 0 -121 57.5t-49 136.5zM645 1616q0 91 90 184q88 94 183 94q42 0 81 -26q45 -33 236 -166q135 -79 283 -174q59 -41 59 -109q0 -92 -82 -180t-172 -88q-43 0 -82 20q-63 38 -205 152q-54 43 -159 100l-166 95q-66 41 -66 98z" />
<glyph unicode="|" horiz-adv-x="716" d="M-33 -227q0 21 6 51q38 152 72 291q190 787 274 1355q13 116 46 322q15 78 106 129q79 43 166 43q129 0 129 -98q0 -23 -2 -35q-6 -24 -34 -132t-48 -188q-81 -348 -164 -833q-126 -727 -147 -836q-15 -74 -113 -129q-82 -43 -164 -43q-127 0 -127 103z" />
<glyph unicode="}" horiz-adv-x="1814" d="M190 154q0 92 82 180q84 90 177 90q34 0 75 -23q79 -46 205 -149q41 -33 162 -102q142 -75 168 -93q59 -38 59 -96q0 -93 -88 -184q-89 -92 -180 -92q-40 0 -80 24q-71 53 -254 176q-167 99 -266 160q-60 42 -60 109zM338 1253q0 102 92 170q57 42 258 162q96 60 189 133 q145 114 182 135q51 39 102 39q73 0 120.5 -59.5t47.5 -140.5q0 -104 -92 -172q-143 -95 -311 -201q-166 -119 -303 -215q-59 -39 -115 -39q-72 0 -121 56t-49 132zM348 709q0 21 6 45q40 204 344 204q16 0 160 -4q72 -2 162 -2q182 0 399 15q30 2 60.5 4t51.5 3t40.5 2.5 t31 2t20 1.5t11.5 1q97 0 97 -129q0 -34 -9 -74q-44 -215 -180 -215q-57 0 -174 6q-117 9 -174 9q-82 0 -328 -17q-203 -14 -321 -14q-87 0 -142 44t-55 118z" />
<glyph unicode="~" horiz-adv-x="1568" d="M106 825q0 33 7 68q21 112 137 231q121 121 225 121q79 0 164 -82q76 -73 149 -149q82 -82 140 -82q54 0 182 131q130 133 205 133q145 0 145 -166q0 -42 -8 -78q-27 -142 -176 -288q-156 -150 -297 -150q-105 0 -227 64q-87 46 -181 118q-85 64 -102 64q-23 -27 -68 -82 q-67 -82 -139 -82q-77 0 -121 74q-35 65 -35 155z" />
<glyph unicode="&#xa0;" />
<glyph unicode="&#xa2;" horiz-adv-x="1456" d="M76 690q0 64 6 98q30 150 231 318q153 129 349 219q-5 75 4 236q15 70 116 116q82 39 166 39q132 0 117 -92q-18 -82 -35 -213q183 -3 260 -111q117 -167 117 -260q0 -80 -86 -133q-74 -41 -162 -41q-58 0 -92 76q-30 76 -111 76q-114 0 -305 -78q-212 -89 -233 -192 q-4 -28 -4 -39q0 -72 48.5 -117t123.5 -45q117 0 336 94q229 96 266 96q106 0 106 -137q0 -219 -364 -338q-3 -56 -15 -162q-15 -74 -114 -127q-82 -39 -170 -39q-115 0 -115 101q0 3 27 166q-467 18 -467 489z" />
<glyph unicode="&#xa8;" />
<glyph unicode="&#xa9;" horiz-adv-x="2142" d="M43 336q0 129 31 301q138 708 565 1061q358 299 754 299q395 0 600 -252q110 -137 110 -387q0 -152 -32 -318q-71 -349 -197 -628q-167 -371 -401 -541q-339 -248 -734 -248t-592 299q-104 162 -104 414zM399 475q0 -204 99 -330q108 -141 313 -141q174 0 371 98 q210 101 364 396q119 228 174 501q23 115 23 187q0 178 -107 303q-113 131 -290 131q-184 0 -394 -139q-200 -134 -348 -377q-141 -235 -186 -461q-19 -90 -19 -168zM608 627q0 66 17 153q65 323 274 484q189 143 381 143q267 0 301 -254q6 -57 -47 -113q-52 -55 -111 -55 q-44 0 -90 82q-47 84 -114 84q-125 0 -238 -162q-96 -135 -123 -262q-6 -35 -6 -63q0 -179 160 -179q61 0 151 72t133 72q48 0 88 -43q42 -42 33 -88q-4 -25 -18 -45q-73 -111 -195 -168q-116 -58 -246 -58q-181 0 -270 121q-80 106 -80 279z" />
<glyph unicode="&#xad;" horiz-adv-x="1271" d="M133 672q0 42 12 94q40 199 140 199q41 0 123 -9q82 -6 127 -6q56 0 241 17q163 18 242 18q137 0 137 -149q0 -101 -61 -177q-60 -78 -158 -81q-35 -3 -86 -3q-12 0 -30.5 1t-46.5 2t-50 2q-110 4 -127 4q-61 0 -190 -15q-118 -14 -191 -14q-82 0 -82 117z" />
<glyph unicode="&#xae;" horiz-adv-x="2142" d="M39 326q0 147 33 303q141 705 563 1059q361 299 756 299t600 -252q112 -136 112 -389q0 -150 -32 -316q-70 -345 -197 -629q-170 -368 -401 -538q-339 -248 -738 -248q-394 0 -590 297q-106 160 -106 414zM397 465q0 -204 99 -330q109 -139 311 -139q170 0 373 96 q108 54 196 152q-124 -62 -258 -62q-98 0 -135 82q-22 55 -22 172v43q0 33 -17 33q-14 0 -43 -16q-7 -51 -37 -207q-9 -53 -78 -84q-63 -29 -114 -29q-117 0 -99 88q6 24 28 110t38 150q73 298 111 545q-65 18 -41 139q7 30 16 58q-240 -286 -311 -643q-17 -90 -17 -158z M807 1352q71 30 258 30q240 0 352 -59q146 -71 146 -256q0 -61 -15 -131q-53 -259 -340 -354l-1 -86q-1 5 -1 14q0 -57 21 -57q11 0 73 30q67 31 91 31q69 0 69 -119q0 -26 -6 -47l-2 -10q189 265 266 651q21 105 21 187q0 177 -105 303q-113 131 -291 131q-185 0 -393 -140 q-79 -51 -143 -118zM954 797q125 3 232 32q100 27 119 115q4 36 4 47q0 144 -199 144q-32 0 -90 -7q-23 -92 -66 -331z" />
<glyph unicode="&#xd2;" />
<glyph unicode="&#xd3;" />
<glyph unicode="&#xd4;" />
<glyph unicode="&#xd5;" />
<glyph unicode="&#x2000;" horiz-adv-x="1016" />
<glyph unicode="&#x2001;" horiz-adv-x="2032" />
<glyph unicode="&#x2002;" horiz-adv-x="1016" />
<glyph unicode="&#x2003;" horiz-adv-x="2032" />
<glyph unicode="&#x2004;" horiz-adv-x="677" />
<glyph unicode="&#x2005;" horiz-adv-x="508" />
<glyph unicode="&#x2006;" horiz-adv-x="338" />
<glyph unicode="&#x2007;" horiz-adv-x="338" />
<glyph unicode="&#x2008;" horiz-adv-x="254" />
<glyph unicode="&#x2009;" horiz-adv-x="406" />
<glyph unicode="&#x200a;" horiz-adv-x="112" />
<glyph unicode="&#x2010;" horiz-adv-x="1271" d="M133 672q0 42 12 94q40 199 140 199q41 0 123 -9q82 -6 127 -6q56 0 241 17q163 18 242 18q137 0 137 -149q0 -101 -61 -177q-60 -78 -158 -81q-35 -3 -86 -3q-12 0 -30.5 1t-46.5 2t-50 2q-110 4 -127 4q-61 0 -190 -15q-118 -14 -191 -14q-82 0 -82 117z" />
<glyph unicode="&#x2011;" horiz-adv-x="1271" d="M133 672q0 42 12 94q40 199 140 199q41 0 123 -9q82 -6 127 -6q56 0 241 17q163 18 242 18q137 0 137 -149q0 -101 -61 -177q-60 -78 -158 -81q-35 -3 -86 -3q-12 0 -30.5 1t-46.5 2t-50 2q-110 4 -127 4q-61 0 -190 -15q-118 -14 -191 -14q-82 0 -82 117z" />
<glyph unicode="&#x2012;" horiz-adv-x="1271" d="M133 672q0 42 12 94q40 199 140 199q41 0 123 -9q82 -6 127 -6q56 0 241 17q163 18 242 18q137 0 137 -149q0 -101 -61 -177q-60 -78 -158 -81q-35 -3 -86 -3q-12 0 -30.5 1t-46.5 2t-50 2q-110 4 -127 4q-61 0 -190 -15q-118 -14 -191 -14q-82 0 -82 117z" />
<glyph unicode="&#x2013;" horiz-adv-x="1273" d="M133 672q0 42 12 94q40 199 140 199q41 0 124 -9q82 -6 127 -6q56 0 241 17q164 18 243 18q137 0 137 -149q0 -101 -61 -177q-60 -78 -158 -81q-35 -3 -87 -3q-12 0 -30.5 1t-46.5 2t-50 2q-110 4 -127 4q-61 0 -190 -15q-119 -14 -192 -14q-82 0 -82 117z" />
<glyph unicode="&#x2014;" horiz-adv-x="2297" d="M133 672q0 42 24 94q80 199 281 199q82 0 246 -9q164 -6 255 -6q112 0 483 17q326 18 484 18q275 0 275 -149q0 -101 -122 -177q-120 -78 -317 -81q-70 -3 -172 -3q-24 0 -61 1t-93.5 2t-100.5 2q-220 4 -254 4q-122 0 -381 -15q-236 -14 -383 -14q-164 0 -164 117z" />
<glyph unicode="&#x2018;" horiz-adv-x="796" d="M291 1579q0 61 8 94q12 76 88 125q70 43 148 43q72 0 106 -32t31 -95q-3 -64 -6.5 -123t-5 -83.5t-1.5 -26.5q0 -107 29 -213l31 -92q16 -62 10 -95q-9 -56 -74 -94q-54 -31 -114 -31q-112 0 -154 97q-36 92 -65 241q-31 172 -31 285z" />
<glyph unicode="&#x2019;" horiz-adv-x="827" d="M217 1061q0 37 33 84q134 206 170 276q39 73 110 293q44 127 187 127q70 0 123 -39t53 -100q0 -92 -139 -334q-110 -195 -203 -315q-79 -97 -191 -97q-54 0 -96 25q-47 27 -47 80z" />
<glyph unicode="&#x201c;" horiz-adv-x="1255" d="M270 1442q0 56 9 96q15 71 90 125q70 43 147 43q72 0 106.5 -32.5t30.5 -98.5q-12 -212 -12 -232q0 -107 29 -213q6 -18 17 -49t15 -41q19 -61 13 -94q-12 -57 -76 -94q-50 -33 -115 -33q-112 0 -153 92q-39 98 -68 244q-33 159 -33 287zM774 1585q0 55 6 96 q15 72 90 123q67 43 146 43q72 0 106.5 -32t30.5 -95l-10 -231q0 -120 26 -215l33 -92q18 -59 12 -95q-12 -57 -73 -94q-55 -30 -117 -30q-116 0 -154 96q-35 83 -63 241q-33 159 -33 285z" />
<glyph unicode="&#x201d;" horiz-adv-x="1284" d="M193 1067q0 37 30 84q136 203 172 276q36 67 111 293q47 127 184 127q72 0 124 -39t52 -100q0 -94 -135 -334q-110 -199 -203 -315q-76 -94 -192 -94q-54 0 -96 22q-47 27 -47 80zM639 924q0 36 31 84q136 209 168 274q39 74 112 293q43 131 187 131q71 0 123.5 -39.5 t52.5 -99.5q0 -91 -139 -336q-116 -206 -203 -318q-76 -94 -191 -94q-56 0 -96 27q-45 26 -45 78z" />
<glyph unicode="&#x2026;" horiz-adv-x="2082" d="M-8 199q0 40 8 71q35 179 270 179q152 0 152 -168q0 -41 -10 -99q-43 -223 -248 -223q-88 0 -123 53q-49 67 -49 187zM657 238q0 36 7 71q37 178 270 178q153 0 153 -168q0 -43 -12 -96q-44 -221 -246 -221q-90 0 -124 49q-48 73 -48 187zM1376 205q0 38 8 69 q34 181 271 181q151 0 151 -168q0 -41 -10 -99q-46 -223 -248 -223q-89 0 -127 53q-45 62 -45 187z" />
<glyph unicode="&#x202f;" horiz-adv-x="406" />
<glyph unicode="&#x205f;" horiz-adv-x="508" />
<glyph unicode="&#x2122;" horiz-adv-x="2322" d="M238 1618q0 131 96 137q107 4 237 14q17 2 177 35q125 23 172 23q61 0 101 -39t40 -96q0 -19 -2 -29q-21 -96 -137 -123q-27 -6 -191 -18q-33 -134 -80 -404q-57 -346 -69 -403q-9 -53 -78 -84q-60 -29 -113 -29q-55 0 -78.5 22t-15.5 66q15 60 61 248q72 304 111 551 q-108 -21 -133 -21q-47 0 -74 50q-24 43 -24 100zM926 707q32 94 53 159q56 186 100 418q38 196 78 418q9 51 80 78q55 22 113 22q108 0 137 -51q21 -43 135 -645q80 106 193 311q124 230 143 318q9 50 80 80q61 22 114 22q126 0 123 -100q0 -6 -16 -160l-49 -350 q-25 -178 -35 -320q0 -54 -12 -168q-8 -55 -84 -90q-59 -24 -125 -24q-78 0 -78 69q0 1 4 22t11.5 63t16.5 97t19 138.5t19 173.5q-158 -213 -246 -373q-18 -41 -49 -102q-47 -78 -172 -78q-106 0 -109 72l8 114q3 175 -55 422q-36 -147 -104 -485q-27 -137 -193 -137 q-58 0 -83 21.5t-17 64.5z" />
<glyph unicode="&#xe000;" horiz-adv-x="1761" d="M0 0v1761h1761v-1761h-1761z" />
</font>
</defs>
</svg>
