<?xml version="1.0" standalone="no"?>
<!DOCTYPE svg PUBLIC "-//W3C//DTD SVG 1.1//EN" "http://www.w3.org/Graphics/SVG/1.1/DTD/svg11.dtd" >
<svg xmlns="http://www.w3.org/2000/svg">
<metadata></metadata>
<defs>
<font id="10_cent_comicsregular" horiz-adv-x="643" >
<font-face units-per-em="2048" ascent="1638" descent="-410" />
<missing-glyph horiz-adv-x="500" />
<glyph horiz-adv-x="2048" />
<glyph horiz-adv-x="2048" />
<glyph unicode="&#xd;" horiz-adv-x="2048" />
<glyph unicode=" " />
<glyph unicode="!" horiz-adv-x="686" d="M188 162q-21 91 17 141q16 25 102 37q90 9 115 -10q54 -42 63 -135q9 -99 -12 -154q-12 -41 -100 -53t-117 24q-47 59 -68 150zM236 608q91 508 73 1082q-1 26 38.5 40t121.5 17q49 3 90 -6q72 -9 66 -41q-48 -220 -72 -543q-12 -149 -22 -278t-15.5 -195.5t-5.5 -69.5 q-6 -52 -145 -55q-44 -3 -78 6q-29 6 -41.5 17t-9.5 26z" />
<glyph unicode="&#x22;" horiz-adv-x="962" d="M170 1649q-2 52 27 75t94 19q124 -12 133 -115q10 -106 -4 -276q-15 -197 -12 -281q2 -44 -25 -65t-82 -17q-109 3 -115 96q-2 128 -16 564zM590 1649q-2 52 27.5 75t91.5 19q124 -12 133 -115q10 -106 -4 -276q-14 -188 -11 -281q2 -44 -24.5 -65t-79.5 -17 q-113 3 -119 96q-4 253 -14 564z" />
<glyph unicode="#" horiz-adv-x="1562" d="M100 569q-3 51 17 95q20 56 69 53q136 -9 217 -12q0 25 3 81v82q-80 -4 -218 -12q-47 -3 -69 51q-18 48 -15 97q0 53 19 96q25 54 74 51q107 -9 204 -12q-11 239 -22 358q-6 66 135 84q14 2 41 2q51 0 74.5 -12t21.5 -37q-15 -200 -18 -395q129 0 252 10q-5 163 -25 348 q-6 66 135 84q14 2 41 2q102 0 99 -49q-19 -201 -19 -375q34 3 109 6q81 3 131 -28q66 -41 69 -111q3 -75 -57 -115q-52 -34 -131 -34h-119q0 -41 2 -74v-76l62 3l98 5q78 3 135 -26q71 -41 74 -113q3 -73 -66 -117q-53 -33 -133 -33h-162q7 -182 7 -309q0 -68 -142 -86 q-24 -4 -37 -4q-51 0 -74.5 13t-21.5 40q6 114 21 351h-117q-51 -2 -119 -2q6 -156 6 -312q0 -68 -139 -86q-28 -4 -39 -4q-97 0 -94 53q2 73 16 336q-104 -3 -198 -12q-50 -3 -74 49q-20 41 -23 96zM635 879q0 -49 2 -88t2 -86q116 3 250 12q0 45 2 82v82h-129 q-57 -2 -127 -2z" />
<glyph unicode="$" horiz-adv-x="1433" d="M92 1026q0 59 14 125q37 181 157.5 302t299.5 153q-7 103 -8 129q-6 84 135 108q14 2 39 2q51 0 75 -15.5t23 -47.5q-10 -160 -10 -174q181 -36 273 -135q24 -18 24 -56q0 -35 -27 -90q-31 -72 -73 -72q-23 0 -47 21q-50 39 -156 57q-2 -63 -2 -190l2 -195q98 10 176 10 q79 0 174 -10q175 -21 187 -266q9 -214 -150 -395q-151 -165 -371 -226v-104q0 -42 -49 -76q-45 -27 -90 -35q-14 -2 -39 -2q-50 0 -73.5 16.5t-20.5 49.5v65l4 68q-333 27 -424 256q-12 35 -12 68q0 59 55 102q33 20 64 20q55 0 106 -63q79 -97 221 -133q3 161 13 379 q-176 3 -285 53q-205 94 -205 301zM344 1108q0 -65 90 -115q62 -33 150 -49q0 190 -9 389q-178 -40 -225 -186q-6 -21 -6 -39zM815 684q0 -45 8 -373q251 103 297 273q4 20 4 26q0 63 -94 72q-64 6 -127 6q-26 0 -88 -4z" />
<glyph unicode="%" horiz-adv-x="2101" d="M70 1077q-9 294 288 422q93 43 291 88q575 131 602 137q210 43 295 48q52 3 183 -37q92 -30 92 -76q0 -18 -15 -39q-183 -263 -452 -725q128 54 278 57q370 6 404 -217q6 -30 6 -63q0 -99 -45 -185q-165 -325 -606 -340q-125 -4 -208.5 69t-107.5 200 q-116 -209 -291 -506q-17 -32 -69 -29q-109 9 -176 82q-28 36 -9 68q367 539 680 1077q120 206 222 393q-260 -13 -451 -45q70 -70 70 -174q0 -106 -47 -195q-167 -329 -613 -344q-145 -6 -233 95q-85 94 -88 239zM289 1137q-12 -98 121 -107q58 -4 82 -4q82 0 170 16 q99 33 143 117q8 19 8 43q0 56 -78 103q-45 26 -114 26q-67 0 -150 -24q-170 -53 -182 -170zM1286 537q-12 -98 121 -107q54 -4 82 -4q83 0 168 16q98 34 139 117q12 21 12 43q0 56 -77 103q-48 26 -115 26q-66 0 -148 -24q-167 -55 -182 -170z" />
<glyph unicode="&#x26;" horiz-adv-x="1316" d="M88 1059q0 111 62 268q72 178 444 266q-6 40 -8 99q-2 43 32.5 70.5t104.5 39.5q12 2 39 2q53 0 77 -15.5t21 -47.5q-1 -12 -3.5 -51t-4.5 -66q63 -3 111 -16q164 -47 215 -146q42 -76 45 -258q-9 -119 -117 -104q-55 6 -79.5 24.5t-18.5 49.5q12 122 -97 157 q-73 25 -151 25q-74 0 -166 -25q-170 -46 -211 -160q-23 -81 -23 -124q0 -82 58 -109q94 -49 229 -43q130 27 199 33q146 15 170 -121q2 -14 2 -39q0 -102 -119 -117q-120 -12 -176 -16q-96 -14 -174 -37q-141 -46 -141 -143q0 -35 18 -82q47 -115 254 -109t309 105 q71 65 119 53q103 -26 94 -168q-6 -62 -49 -96q-110 -90 -295 -127q0 -33 2 -60v-55q0 -46 -49 -76q-43 -28 -90 -37q-14 -2 -39 -2q-102 0 -96 68q0 47 2 72l4 71q-300 18 -395 195q-70 125 -70 225q0 167 162 295q-130 73 -183 217q-18 50 -18 115z" />
<glyph unicode="'" horiz-adv-x="684" d="M182 1108q0 18 13 41q76 135 114 258q34 109 43 274q6 78 105 78q57 0 104 -30q53 -41 41 -95q-53 -276 -190 -532q-34 -64 -105 -64q-20 0 -47 6q-78 18 -78 64z" />
<glyph unicode="(" horiz-adv-x="954" d="M59 825q0 315 181 584q152 230 360 342q76 40 150 31q81 -10 119.5 -42.5t35.5 -86.5q-3 -50 -82 -86q-226 -107 -366 -297q-152 -205 -152 -445q0 -259 168 -463q146 -179 404 -296q43 -19 34 -66q-15 -97 -133 -147q-53 -21 -96 4q-623 365 -623 968z" />
<glyph unicode=")" horiz-adv-x="1062" d="M125 1624q15 103 133 150q54 21 96 -2q625 -370 625 -969q0 -317 -182 -588q-152 -226 -361 -340q-73 -40 -149 -31q-63 9 -105 37q-54 37 -51 90q3 49 82 86q227 109 367 299q149 198 149 445q0 257 -168 461q-151 189 -401 299q-44 18 -35 63z" />
<glyph unicode="*" horiz-adv-x="1398" d="M102 1194q6 156 86 147q146 -14 281 -14q-6 7 -20.5 26.5t-41.5 54.5t-53 69q-53 68 -41 127q12 61 57 94.5t107 27.5q66 -9 111 -77l53 -80l21 -31q28 -40 63 -98q15 23 66 92l71 102q46 67 113 76q62 6 107 -27t57 -94q9 -63 -43 -127q-4 -6 -20 -25t-27 -34l-45 -55 l69 4q24 3 76 6q74 5 128 -34.5t58 -106.5q1 -70 -48 -110t-126 -40h-94h-84q47 -63 135 -172q27 -29 -14 -82q-23 -30 -70 -61q-50 -30 -98 -39t-68 24q-45 88 -149 250q-73 -90 -182 -256q-21 -30 -70 -14q-109 29 -162 133q-22 48 4 74q85 85 129 139q-56 -2 -258 -16 q-46 -3 -63 53q-17 51 -15 94z" />
<glyph unicode="+" horiz-adv-x="1200" d="M94 817q3 157 72 148q176 -19 330 -13q-1 30 -5.5 132t-7.5 171q-3 70 148 70q43 0 88 -10q58 -21 55 -60q-20 -137 -20 -288q25 1 95.5 6.5t108.5 7.5q64 2 107 -37t47 -104q1 -66 -38.5 -108t-102.5 -42q-60 0 -107 2h-104l12 -280q2 -68 -38 -112t-105 -44 q-68 0 -109 44t-39 112q0 111 11 280l-146 -8q-20 -1 -82.5 -6t-105.5 -8q-19 -2 -33 12.5t-21 44.5q-10 45 -10 90z" />
<glyph unicode="," horiz-adv-x="681" d="M176 -174q0 20 12 41q88 161 115 254q34 106 43 276q6 78 107 78q54 0 102 -31q53 -41 41 -94q-53 -287 -188 -530q-35 -62 -107 -62q-11 0 -47 4q-78 18 -78 64z" />
<glyph unicode="-" horiz-adv-x="1112" d="M152 762q-2 39 8 86q6 32 17 46t28 11q158 -22 301 -10l352 31q55 4 89 -37t34 -103t-27 -102q-35 -47 -90 -47q-127 -2 -258 2q-96 5 -395 -23q-53 -6 -59 146z" />
<glyph unicode="." horiz-adv-x="585" d="M217 207q-18 90 16 139q19 28 105 37q91 9 117 -8q52 -43 61 -137q9 -92 -12 -154q-15 -41 -103 -53q-88 -15 -114 24q-48 60 -70 152z" />
<glyph unicode="/" horiz-adv-x="1298" d="M41 33l405 635q224 359 390 649q145 255 225 428q13 32 63 29q110 -9 181 -86q28 -36 10 -66q-174 -244 -529 -850q-216 -382 -493 -860q-17 -32 -70 -29q-107 9 -174 82q-28 35 -8 68z" />
<glyph unicode="0" horiz-adv-x="1372" d="M131 702q0 72 6 154q65 840 588 840q264 0 434 -170q135 -138 135 -484q0 -96 -8 -180q-35 -389 -149 -575q-156 -258 -500 -258q-506 0 -506 673zM342 725q0 -291 193 -385q49 -27 104 -27q87 0 190 68q161 103 226 381q32 134 32 260q0 315 -260 379q-36 8 -82 8 q-150 0 -258 -156q-75 -112 -116 -292q-29 -139 -29 -236z" />
<glyph unicode="1" horiz-adv-x="1097" d="M74 178q3 157 67 148q170 -21 320 -15q8 188 18 424q9 237 -8 449q-3 35 -31 35q-21 0 -71 -29q-76 -43 -111 -43q-8 0 -16 4q-51 25 -66 104q-4 36 -4 48q0 40 21 55q10 10 178 119q87 54 213 116q48 6 82 -2q60 -9 57 -45q-30 -313 -21 -610q14 -361 19 -608 q54 3 166 12q60 4 99 -36t44 -103q2 -67 -35.5 -109.5t-99.5 -42.5q-89 0 -152 2q-72 2 -151 2q-177 0 -457 -22q-19 -1 -31 12.5t-20 44.5q-10 45 -10 90z" />
<glyph unicode="2" horiz-adv-x="1335" d="M80 1239q-9 127 168 246q148 98 354 98q84 0 291 -20q139 -14 213 -101q150 -179 156 -321q9 -207 -172 -348q-135 -112 -367 -168q-279 -71 -264 -351q58 -2 581 27q64 5 109.5 -34.5t46.5 -104.5q2 -66 -37.5 -108t-105.5 -42q-94 0 -162 2q-76 2 -162 2 q-195 0 -487 -24q-63 -6 -66 133q-3 117 4 180q41 399 338 537q72 33 180 57q117 29 183 59q114 52 114 136q0 116 -102 184q-92 59 -213 53q-180 -9 -299 -94q-60 -45 -66 -86t21 -94q6 -12 6 -25q0 -41 -78 -76q-28 -14 -55 -14q-102 0 -129 297z" />
<glyph unicode="3" horiz-adv-x="1343" d="M106 436q3 115 115 103q72 -9 88 -35q11 -18 8 -62q-3 -40 15 -75q21 -47 106 -68q66 -16 129 -16q73 0 166 22q170 49 211 164q25 73 25 121q0 81 -60 112q-98 49 -229 43q-53 -12 -197 -32q-151 -9 -172 121q-4 24 -4 36q0 103 121 115l178 19q104 12 174 36 q140 47 140 148q0 34 -19 80q-43 112 -254 106q-205 -6 -309 -102q-70 -67 -121 -55q-105 21 -90 167q3 61 47 99q82 71 242 114q140 36 270 33q345 -9 447 -196q67 -122 67 -226q0 -166 -160 -299q128 -71 183 -215q16 -56 16 -116q0 -117 -63 -269q-61 -152 -361 -241 q-130 -40 -248 -48q-118 -12 -200 11q-164 48 -220 145q-44 78 -41 260z" />
<glyph unicode="4" horiz-adv-x="1288" d="M106 733l211 457q87 194 168 450q10 30 60 33q108 9 184 -49q37 -29 21 -57q-133 -265 -199 -410q-105 -228 -160 -426q125 -3 488 23q0 307 -27 559q-6 63 135 84q14 2 41 2q51 0 75 -12.5t23 -38.5q-22 -258 -22 -453q0 -90 2 -133q129 -30 141 -158q15 -131 -135 -131 l2 -156q2 -53 2 -170q0 -66 -137 -84q-28 -4 -41 -4q-49 0 -72.5 13.5t-21.5 40.5l10 186l12 178q-329 0 -657 -22q-35 -3 -60 24.5t-40 85.5q-28 114 -3 168z" />
<glyph unicode="5" horiz-adv-x="1277" d="M94 471q9 114 117 102q105 -15 96 -73q-2 -10 -2 -31q0 -93 98 -127q73 -25 152 -25q77 0 166 25q171 46 209 162q22 71 22 119t-22 79q-64 82 -240 82q-44 0 -90 -6q-116 -12 -184 -18q-92 -9 -168 14q-101 27 -107 109q-11 179 -8 299q0 150 6 239q-3 54 35 115 q41 65 90 59q200 -21 344 -12l396 29q65 4 107.5 -35.5t47.5 -106.5q2 -66 -37.5 -107.5t-105.5 -41.5q-134 -2 -275 2q-115 6 -342 -8q-8 -82 -10 -121q-3 -65 2 -109q0 -67 154 -55q329 24 526 -117q156 -108 156 -301q0 -114 -64 -266q-66 -154 -360 -244 q-124 -40 -248 -49q-121 -9 -201 13q-166 47 -217 147q-34 69 -43 258z" />
<glyph unicode="6" horiz-adv-x="1388" d="M100 786q-3 331 154 560q178 258 496 258q183 0 292 -86q98 -74 170 -258q11 -26 11 -39q0 -48 -62 -101q-41 -35 -69 -35q-37 0 -60 45q-85 163 -215 193q-58 10 -96 10q-157 0 -258 -137q-135 -181 -129 -416q127 121 305 164q103 23 182 23q67 0 150 -17 q222 -52 286 -215q35 -90 35 -180q0 -77 -24 -154q-57 -187 -211 -313q-159 -129 -352 -129q-311 0 -469 272q-133 227 -136 555zM381 451q99 -224 319 -224q189 0 320 174q35 78 35 134q0 54 -37 88q-72 60 -195 51q-121 -9 -248 -68q-137 -64 -194 -155z" />
<glyph unicode="7" horiz-adv-x="1236" d="M100 1479q3 154 72 145q187 -21 358 -12q212 11 406 26q21 9 45 9q51 0 115 -27q78 -35 78 -74q0 -2 -5 -22q-115 -245 -221 -537q4 0 14 0.5t28 1.5l36 2q63 5 106.5 -34t47.5 -105q1 -66 -39 -108t-103 -42q-32 0 -96 3h-96l-115 -328q-78 -227 -115 -324 q-15 -34 -63 -37q-112 -12 -188 52q-35 27 -19 63l121 279q51 120 123 295q-144 -5 -365 -23q-20 -2 -34 12t-21 45q-10 45 -10 90q3 154 73 148q112 -14 230 -14q122 0 231 8q88 244 131 381h-250q-128 0 -409 -25q-20 -2 -34 12.5t-21 46.5q-11 50 -11 93z" />
<glyph unicode="8" horiz-adv-x="1415" d="M127 485q0 170 250 349q-24 9 -45 18q-111 49 -168 149q-31 57 -31 134q0 57 23 141q52 181 198 272q134 84 330 84q114 0 236 -35q133 -38 215 -102q0 -2 6 -2h2q98 -94 98 -199q0 -131 -123 -284q214 -83 205 -381q0 -126 -45 -242q-46 -124 -127 -205 q-69 -67 -213 -94q-29 -6 -236 -22q-34 -3 -63 -3q-204 0 -348 99q-170 114 -158 278h-2q-4 32 -4 45zM371 504q0 -52 61 -98q128 -92 289 -89q147 0 248 64q117 77 114 215q0 130 -92 154q-83 22 -170 22q-76 0 -170 -16q-191 -34 -268 -199q-12 -27 -12 -53zM387 1227 q0 -67 100 -101q133 -52 263 -61q114 6 180 78q37 37 37 92q0 37 -23 98q-109 50 -299 53q-192 3 -246 -114q-12 -24 -12 -45z" />
<glyph unicode="9" horiz-adv-x="1406" d="M106 1049q0 257 228 462q151 136 360 136q304 0 467 -273q136 -227 139 -555q3 -330 -155 -557q-178 -260 -498 -260q-182 0 -291 86q-97 75 -168 258q-12 21 -12 39q0 46 60 100q41 35 71 35q37 0 60 -45q83 -160 213 -190q54 -13 94 -13q167 0 287 164q108 150 108 322 q0 44 -2 67q-128 -122 -307 -163q-103 -23 -182 -23q-75 0 -150 16q-225 52 -289 215q-33 82 -33 179zM342 1069q0 -56 37 -86q69 -60 192 -51q128 9 248 65q141 68 201 158q-105 221 -318 221q-191 0 -323 -172q-37 -78 -37 -135z" />
<glyph unicode=":" horiz-adv-x="579" d="M139 313q-18 91 17 144q17 23 104 35q89 9 115 -11q54 -42 63 -135q9 -87 -14 -153q-15 -44 -100 -56q-91 -12 -117 27q-47 59 -68 149zM182 891q-21 89 17 139q15 28 102 37q89 9 115 -8q54 -45 63 -137q9 -93 -10 -154q-15 -44 -102 -53q-65 -10 -94.5 6.5t-59.5 77.5 q-23 44 -31 92z" />
<glyph unicode=";" horiz-adv-x="657" d="M74 -174q0 20 12 41q88 161 115 254q34 106 43 276q6 78 106 78q57 0 105 -31q51 -39 39 -94q-52 -284 -189 -530q-35 -62 -104 -62q-13 0 -49 4q-78 18 -78 64zM213 891q-21 89 14 139q22 28 107 37q89 9 112 -8q55 -49 64 -137q9 -95 -12 -154q-15 -44 -103 -53 q-61 -10 -91.5 7t-59.5 77q-23 44 -31 92z" />
<glyph unicode="&#x3c;" horiz-adv-x="1101" d="M90 797q-3 67 53 112q157 151 279 312l301 385q53 68 117 71q61 4 103 -31.5t50 -97.5q9 -57 -57 -141q-2 -6 -111 -121q-60 -66 -231 -264q-45 -53 -172 -217l211 -238q66 -76 371 -368q29 -29 8 -74q-46 -103 -148 -141q-47 -15 -67 14q-113 147 -314 348l-338 326 q-52 52 -55 125z" />
<glyph unicode="=" horiz-adv-x="1269" d="M113 571q0 46 10 91q7 30 21.5 44.5t35.5 12.5q211 -25 389 -10l455 28q77 6 119 -39q21 -27 24 -108q3 -67 -18 -94q-41 -47 -117 -47q-96 0 -168 2q-80 2 -166 2q-199 0 -510 -25q-37 -3 -55 32.5t-20 110.5zM115 1006q3 154 73 145q200 -22 367 -10q7 0 426 26 q66 4 108.5 -34.5t47.5 -104.5q2 -66 -38.5 -107.5t-107.5 -41.5q-94 0 -162 2q-76 2 -159 2q-191 0 -488 -25q-20 -2 -34 12t-21 43q-12 43 -12 93z" />
<glyph unicode="&#x3e;" horiz-adv-x="1079" d="M92 1532q40 100 146 141q48 15 69 -12q139 -186 287 -328l362 -352q52 -52 58 -123q3 -69 -53 -113q-155 -144 -283 -309l-295 -387q-54 -66 -119 -69q-140 -9 -155 129q-9 59 55 141q13 16 112 121q118 125 232 264q18 22 174 217q-327 361 -582 606q-29 29 -8 74z" />
<glyph unicode="?" horiz-adv-x="1480" d="M205 1393q-15 166 213 270q191 83 368 74q154 -9 236 -25q140 -27 209 -96q71 -74 112 -207q36 -115 33 -235q-6 -117 -49 -189q-56 -92 -162 -86q-145 10 -252 -4q-137 -15 -137 -88q0 -17 2 -25q28 -97 -6 -131q-59 -68 -129 -71q-66 -3 -104 10q-40 15 -37 209 q4 96 14 215q0 65 195 100q34 7 145 10q266 3 266 123q0 115 -108 183q-92 60 -209 57q-179 -9 -303 -98q-56 -44 -62 -82q-6 -44 21 -97q6 -12 6 -22q0 -42 -80 -80q-25 -14 -53 -14q-102 0 -129 299zM545 186q-21 92 14 142q19 25 105 37q88 9 114 -11q55 -46 64 -137 q9 -93 -13 -154q-16 -42 -102 -51q-90 -12 -117 25q-43 52 -65 149z" />
<glyph unicode="@" horiz-adv-x="1871" d="M109 662q0 72 6 149q35 434 247 713q246 323 656 323q337 0 563 -215q186 -177 186 -614q0 -87 -10 -207q-18 -236 -106 -514q-126 -397 -285 -385q-255 18 -270 551l-29 -29q-82 -82 -180 -82q-137 0 -244 113q-105 111 -108 240q-3 163 112 331q117 159 277 221 q52 19 92 19q63 0 121 -37q12 59 118 74q14 2 37 2q35 0 51 -12.5t15 -38.5q-35 -390 -35 -539q0 -506 61 -506q47 0 123 469q29 185 29 303q0 210 -70 332q-119 204 -336 256q-55 10 -98 10q-168 0 -344 -135q-222 -173 -311 -516q-38 -140 -41 -283q0 -158 51 -280 q100 -245 297 -309q48 -15 51 -62q3 -102 -86 -170q-24 -18 -45 -18q-14 0 -26 6q-246 96 -365 342q-104 209 -104 498zM729 723q0 -39 23 -80q27 -43 67 -43q39 0 84 39q100 74 164 162q31 60 31 110q0 32 -8 56q-15 61 -86 61q-22 0 -46 -6q-100 -21 -182 -158 q-47 -80 -47 -141z" />
<glyph unicode="A" horiz-adv-x="1282" d="M-84 180q77 306 346 768q122 211 166 293q88 177 109 320v6q0 51 53 82q49 25 108 28h18q55 0 93 -16q59 -27 65 -84q73 -346 203 -682l256 -657q4 -12 4 -21q0 -51 -102 -98q-66 -29 -96 -29q-42 0 -54 35q-23 86 -102 301q-25 2 -55 2q-116 0 -297 -25 q-275 -38 -352 -41q-10 -26 -50 -108q-23 -55 -26 -133q-3 -64 -94 -64q-61 0 -121 31q-75 41 -72 92zM377 659h23q89 0 239 19q204 29 258 31q-83 257 -178 526q-58 -107 -176 -285q-117 -171 -166 -291z" />
<glyph unicode="B" horiz-adv-x="1337" d="M47 1413q-1 19 -1 36q0 120 56 130q172 33 361 39q26 1 51 1q344 0 514 -153q93 -81 96 -229v-11q0 -171 -178 -284q311 -152 311 -419v-5q0 -293 -360 -401q-141 -45 -324 -60l-329 -18h-10q-37 0 -72 18q-43 25 -43 65v5q26 443 26 752q0 212 -14 409q-4 -2 -14 -2 q-61 0 -70 127zM373 1053h194q142 6 215 39q99 46 99 141q0 143 -154 158q-54 4 -84 4q-126 0 -264 -33l-6 -156q-2 -38 -2 -76.5t2 -76.5zM377 766q2 -144 10 -447q33 -2 96 -2q142 0 310 29q209 38 206 166q0 163 -194 231q-115 41 -246 41q-87 0 -182 -18z" />
<glyph unicode="C" horiz-adv-x="1331" d="M25 766q0 332 186 573q203 267 524 267q150 0 246.5 -55.5t165.5 -182.5q13 -28 51 -139q30 -96 30 -129q0 -6 -1 -10q1 -8 1 -15q0 -58 -85 -92q-27 -8 -56 -8q-57 0 -86 57q-13 26 -22 103q-8 66 -27 92q-87 106 -217 106q-129 0 -260 -119q-163 -149 -209 -385 q-14 -66 -14 -133q0 -151 76 -264q106 -165 268 -192q38 -6 77 -6q75 0 156 22q127 38 203 111q27 24 58 24q46 0 90 -53q45 -51 45 -100q0 -19 -11 -45q-166 -208 -540 -232q-20 -1 -39 -1q-287 0 -457 249q-153 231 -153 557z" />
<glyph unicode="D" horiz-adv-x="1320" d="M61 1458q0 94 86 115q239 53 408 53q275 0 449 -125q225 -159 225 -479q0 -191 -90 -391q-154 -350 -488 -522q-171 -89 -362 -95h-10q-41 0 -74 23q-37 22 -37 67v7q29 498 29 782q0 177 -13 403h-6q-48 0 -76 30q-30 32 -39 97q-2 12 -2 35zM418 1042l12 -423 q5 -194 8 -312q224 53 373 234q155 184 164 411q1 13 1 25q0 182 -124 309q-94 94 -268 94q-65 0 -156 -16q-10 -177 -10 -322z" />
<glyph unicode="E" horiz-adv-x="1040" d="M113 154q0 329 12 686q3 111 3 219q0 253 -15 493v5q-1 29 21 48q24 20 73 27q41 8 82 8q35 0 65 -10q88 -14 183 -14h34l254 6q56 0 82 -51q24 -44 27 -98v-11q0 -45 -21 -86q-22 -47 -71 -47h-6t-27 2t-85 7t-124 10q-119 11 -200 11q-19 0 -35 -1q-9 -147 -9 -328 q40 -6 82 -6q60 0 146 12q126 21 145 23q4 1 9 0q69 0 83 -141q2 -17 2 -35q0 -29 -6 -58q-15 -57 -57 -57q-29 -1 -55 -1q-61 0 -107 5q-13 1 -29 1q-70 0 -207 -21q2 -150 17 -383q67 0 455 47q8 1 15 1q51 0 89 -55q37 -55 37 -118q0 -114 -90 -117q-199 -8 -301 -10 q-181 -9 -301 -29h-12q-35 0 -87 14q-71 21 -71 52z" />
<glyph unicode="F" horiz-adv-x="983" d="M123 90q0 289 10 686q4 127 4 253l-14 464q0 61 92 78q47 6 84 6q38 0 68 -10q87 -15 180 -15h31l245 7q52 0 80 -54q24 -41 27 -98q0 -53 -21 -94q-19 -47 -69 -47h-6q-14 0 -228 18q-119 11 -196 11q-18 0 -33 -1q-8 -107 -8 -237q-2 -60 -1.5 -120t1.5 -120 q16 -1 33 -1q73 0 155 11l188 25q5 1 10 1q41 0 68 -48q22 -43 31 -94q2 -10 2 -33q0 -119 -74 -119q-32 -1 -61 -1q-66 0 -113 5q-15 1 -37 1q-66 0 -192 -11l6 -215l10 -211q3 -69 -135 -84q-28 -4 -41 -4q-96 0 -96 51z" />
<glyph unicode="G" horiz-adv-x="1429" d="M66 760q0 332 186 573q205 266 526 266q150 0 246.5 -55t163.5 -182q21 -38 51 -139q30 -96 30 -130q0 -6 -1 -10q2 -9 2 -17q0 -55 -86 -85q-30 -12 -54 -12h-6q-55 0 -82 57q-13 23 -22 102q-9 72 -27 93q-87 106 -215 106q-129 0 -260 -119q-165 -152 -211 -385 q-12 -71 -12 -135q0 -147 74 -262q107 -167 270 -193q35 -5 72 -5q65 0 133 16q128 35 176 100q32 43 35 107q1 10 1 19q0 45 -12 91q-38 -1 -94.5 -3t-141 -5.5t-151.5 -5.5h-7q-53 0 -91 41q-34 40 -37 102q-1 10 -1 20q0 38 18 78q22 48 71 48h6q101 -8 179 -8q48 0 88 3 q100 5 305 25q6 1 13 1q72 0 104 -97q12 -47 12 -82q0 -46 -25 -82q2 -27 2 -78q0 -144 -39 -313q-53 -239 -538 -248h-8q-315 0 -490 250q-153 225 -153 553z" />
<glyph unicode="H" horiz-adv-x="1263" d="M162 768q2 73 2 144q0 302 -31 583v5q-1 29 31 49q34 21 106 30q14 2 39 2q102 0 99 -49q-19 -201 -19 -356q-1 -40 0 -93q0 -106 2 -264q52 -8 117 -8q31 0 340 35h12l12 352q2 97 2 185.5t-2 168.5q-3 69 140 84q16 2 32 2q27 0 52 -6q54 -12 51 -53q-53 -356 -53 -702 v-37l2 -734q0 -71 -140 -83q-18 -2 -34 -2q-27 0 -50 6q-56 12 -53 51q8 220 25 477q-70 0 -172 4h-17q-75 0 -256 -22q5 -238 7 -322.5t2 -81.5q0 -66 -140 -84q-28 -4 -39 -4q-96 0 -96 50z" />
<glyph unicode="I" horiz-adv-x="1150" d="M104 199q3 147 61 148q3 0 7 -1q119 -14 232 -14h40l13 708q0 164 -6 328q-95 -3 -238 -18h-5q-60 0 -83 145q-6 35 -6 64q0 44 10.5 64t30.5 17q113 -15 219 -15q62 0 121 5l393 31h9q60 -1 105 -49q48 -52 48 -123q0 -119 -111 -119q-70 0 -125 2t-121 2 q-14 -167 -14 -358q0 -181 25 -670q4 0 25 1.5t76 6t105 8.5h11q54 0 90 -37q40 -41 45 -106v-6q0 -61 -36 -101q-38 -42 -99 -42q-89 0 -152 2q-72 2 -151 2q-179 0 -457 -25h-3q-17 -1 -29 13t-19 47q-11 50 -11 90z" />
<glyph unicode="J" horiz-adv-x="1255" d="M162 549q0 128 6 143q22 57 123 60q63 0 92.5 -20t28.5 -62l-9 -191q3 -84 43 -114q38 -31 126 -31q20 0 44 2q219 15 263 303q18 129 18 274q0 162 -29 383q-70 2 -221 2q-123 0 -360 -24h-5q-57 0 -83 145q-6 34 -6 64q0 84 35 84h5q124 -16 229 -16q58 0 111 5l394 29 q8 1 17 1q81 0 122 -83q24 -49 24 -94q0 -32 -14 -57q4 -140 4 -199q0 -480 -59 -743q-74 -317 -473 -347q-54 -4 -80 -4q-232 0 -299 138q-47 89 -47 352z" />
<glyph unicode="K" horiz-adv-x="1333" d="M117 45q0 310 10 698q3 131 3 252l-13 452q1 29 33 49q34 22 104 32q28 4 43 4q90 0 90 -43v-6q-27 -238 -27 -540q0 -80 2 -165q291 342 320 377q172 206 303 393q13 19 43 19q10 0 23 -2q94 -24 151 -109q12 -19 12 -33.5t-12 -25.5q-237 -231 -618 -721q14 2 41 2 q106 0 159 -74q15 -20 88 -160q60 -113 97 -141q9 -6 20 -6q46 0 125 94q14 17 33 17q13 0 29 -9q79 -46 94 -153q1 -7 1 -13q0 -38 -32 -61q-195 -154 -293 -154q-25 0 -43 9q-84 38 -153 141q-118 173 -123 180q-29 29 -66 29q-70 0 -180 -82l2 -107q1 -10 1 -25 q2 -15 2 -38l1 -44q0 -63 -133 -83q-14 -2 -41 -2q-96 0 -96 49z" />
<glyph unicode="L" horiz-adv-x="1081" d="M117 248q0 23 2 33q4 413 8 616q3 120 3 231q0 222 -13 408q-1 32 32.5 52.5t104.5 31.5q14 2 41 2q51 0 74 -12t20 -37q-29 -252 -29 -502q0 -63 2 -125q9 -305 21 -624q151 15 537 92q14 3 28 3q40 0 68 -28q36 -37 41 -100q1 -10 1 -20q0 -53 -27 -93q-32 -48 -91 -53 q-194 -23 -348 -39q-192 -23 -350 -55q-6 -2 -21 -2q-62 0 -86 92q-18 79 -18 129z" />
<glyph unicode="M" horiz-adv-x="1853" d="M127 133q51 337 51 675v38l-2 706q0 71 152 80q23 1 44 1q113 0 138 -42q59 -99 113 -227q70 -181 92 -236q18 -48 215 -565q115 133 254 549q125 372 125 487q0 32 161 41q25 1 45 1q116 0 119 -42q7 -77 47 -706q29 -412 72 -709q1 -4 1 -8q0 -33 -48 -57 q-45 -24 -84 -31q-30 -6 -55 -6q-85 0 -82 45q1 35 1 73q0 302 -63 820q-102 -164 -223 -422q-128 -277 -166 -442q-9 -46 -139 -58q-26 -2 -46 -2q-84 0 -87 39q-15 207 -129 547q-95 286 -203 459q-33 -492 -33 -833q0 -77 2 -146q3 -70 -139 -82q-16 -2 -32 -2 q-27 0 -52 6q-50 11 -50 42q0 3 1 7z" />
<glyph unicode="N" horiz-adv-x="1406" d="M162 762q2 73 2 144q0 302 -31 585v5q-1 24 27 42q30 20 98 37q30 6 53 6q81 0 99 -80q35 -147 143 -297q60 -85 221 -260q149 -162 219 -258q23 408 23 696q0 86 -2 162q-3 69 139 84q16 2 32 2q27 0 52 -6q52 -11 51 -44v-7q-51 -365 -51 -702v-37v-734q0 -72 -139 -84 q-16 -2 -32 -2q-27 0 -52 6q-54 12 -51 52v18q0 212 -201 498q-81 115 -191 235l-182 201q0 -184 8 -449q11 -365 11 -448q0 -66 -140 -84q-14 -2 -39 -2q-96 0 -96 48z" />
<glyph unicode="O" horiz-adv-x="1310" d="M72 623q0 71 6 153q62 840 588 840q264 0 434 -170q135 -138 135 -483q0 -97 -8 -181q-35 -389 -152 -575q-156 -258 -500 -258q-503 0 -503 674zM283 645q0 -291 190 -385q53 -27 107 -27q86 0 190 66q161 107 223 383q35 146 35 260q0 315 -260 379q-39 8 -82 8 q-151 0 -258 -155q-79 -118 -119 -293q-26 -124 -26 -236z" />
<glyph unicode="P" horiz-adv-x="1171" d="M53 1397q-1 18 -1 34q0 115 57 125q303 60 460 60q295 0 439 -164q97 -114 106 -326q1 -14 0 -28q0 -272 -221 -408q-189 -115 -504 -133q1 -48 2 -95t1.5 -84t1 -72t1 -61t1 -49t1 -38t0.5 -26v-15.5t0 -3.5q0 -71 -139 -86q-12 -2 -37 -2q-51 0 -74.5 12.5t-21.5 38.5 q29 561 29 786q0 208 -15 422h-6l-2 -2q-12 -4 -18 -4q-51 0 -60 119zM379 1085q0 -94 4 -278q273 11 403 91q124 76 123 217v15q-12 214 -172 252q-67 15 -139 15q-92 0 -211 -29q-4 -93 -8 -283z" />
<glyph unicode="Q" horiz-adv-x="1484" d="M96 750q0 36 4 118q27 346 199 562q192 253 516 253q270 0 449 -170q145 -139 145 -481q0 -76 -6 -164q-35 -388 -197 -592l25 -45q33 -56 33 -73q0 -51 -80 -119q-61 -55 -99 -55q-23 0 -69 73q-1 2 -12.5 22.5t-16.5 29.5q-128 -58 -301 -58q-270 0 -442 205 q-148 174 -148 494zM299 752q0 -107 37 -191q74 -167 248 -207q56 -12 108 -12q69 0 142 25q-117 183 -236 311q-10 12 -10 28t10 37q49 91 145 129q18 6 31 6q22 0 33 -16q158 -224 244 -344q83 103 118 254q31 127 31 221q0 324 -280 389q-53 11 -91 11q-125 0 -256 -84 q-170 -113 -241 -344q-33 -109 -33 -213z" />
<glyph unicode="R" horiz-adv-x="1300" d="M76 1403v13q0 123 55 134q300 60 463 60q295 0 438 -162q98 -110 107 -326v-21q0 -379 -428 -501q45 -129 98 -231q18 -41 65 -41q66 0 193 92q12 11 25 11q20 0 45 -25q29 -29 43 -70q18 -49 18 -103q0 -49 -39 -69q-210 -119 -319 -119q-35 0 -56 12q-91 40 -147 152 q-18 35 -80 205q-20 57 -78 57q-31 0 -86 -22q6 -172 6 -340q0 -68 -139 -86q-35 -5 -41 -5q-92 0 -92 49l27 785q0 191 -13 420q-4 -1 -7 -1q-55 0 -58 132zM381 1077q0 -184 2 -276q283 7 420 89q129 77 129 219v17q-15 220 -180 254q-72 11 -125 11q-112 0 -240 -35 q-6 -138 -6 -279z" />
<glyph unicode="S" horiz-adv-x="1363" d="M74 981q0 60 14 123q38 181 154.5 300t294.5 157q66 14 139 14q82 0 162 -21q150 -41 233 -127q25 -19 25 -53q0 -38 -27 -90q-28 -72 -74 -72q-20 0 -47 21q-53 38 -151 55q-64 11 -134 11q-16 0 -32 -1q-242 -15 -301 -198q-6 -21 -6 -37q0 -75 104 -121 q104 -48 223 -48q19 0 39 1q122 9 203 18q61 7 100 7q171 0 262 -82q68 -62 74 -199q1 -14 1 -28q0 -230 -191 -412q-197 -188 -449 -203q-35 -2 -69 -2q-149 0 -265 43q-176 65 -237 217q-15 38 -15 68q0 59 56 100q36 22 63 22q55 0 107 -61q60 -73 154 -113 q81 -35 165 -35q13 0 25 1q130 9 258 94q141 96 170 211q4 16 4 22q0 79 -176 82q-55 0 -131 -8t-127 -8h-28q-253 0 -365 53q-205 94 -205 299z" />
<glyph unicode="T" horiz-adv-x="956" d="M12 1481q3 45 37 45h34q176 0 329 28q126 26 362 68q16 3 32 3q56 0 103 -42q60 -54 60 -127q0 -90 -99 -117q-22 -5 -172 -16q-56 -5 -75 -5q-6 0 -9 1q-8 -148 -8 -328q0 -112 10 -444q11 -361 11 -443q0 -71 -142 -86q-10 -2 -34 -2q-99 0 -99 47l31 797 q0 223 -14 426q-145 -27 -232 -45h-7q-32 -1 -56 29q-28 34 -47 108q-15 52 -15 91v12z" />
<glyph unicode="U" horiz-adv-x="1333" d="M127 731q-1 29 -1 57q0 233 44 451l66 328q12 70 135 73q109 0 109 -69q0 -7 -1 -15q-6 -57 -82 -393q-53 -245 -53 -395q0 -162 51 -281q61 -142 262 -142q12 0 25 1q325 14 325 418q0 25 -1 51q-6 140 -54 348q-7 29 -38 152.5t-48 189.5q-6 27 -6 47q0 85 98 97 q13 1 25 1q100 0 119 -89q70 -339 88 -443q35 -199 34 -374q0 -37 -1 -74q-27 -611 -552 -611h-5q-524 0 -539 672z" />
<glyph unicode="V" horiz-adv-x="1103" d="M41 1479q0 51 102 100q52 25 99 31q8 1 14 1q37 0 45 -28q68 -179 125 -493q66 -349 117 -496q92 229 143 477l105 512q9 35 55 35q110 0 192 -70q30 -25 30 -48q0 -7 -3 -13q-137 -299 -227 -690l-160 -705q-15 -66 -143 -69h-11q-123 0 -123 69q-50 180 -98 469 q-52 324 -82 432q-62 244 -176 465q-4 12 -4 21z" />
<glyph unicode="W" horiz-adv-x="1726" d="M59 1460q-1 5 -1 10q0 28 42 50q35 18 80 24q14 2 39 2q103 0 109 -49q22 -156 59 -369l68 -370q195 458 231 717q12 90 160 90h10q52 -3 105 -21q66 -21 75 -63q94 -372 258 -768l68 395q37 224 61 393q9 51 109 51q80 0 131 -32q31 -16 31 -41q0 -6 -2 -13 q-249 -809 -258 -1398q0 -56 -56 -80q-36 -16 -79 -16q-12 0 -25 1q-56 9 -96 33q-44 29 -44 68q0 7 1 14q14 85 14 184q0 213 -80 426q-113 295 -203 471q-97 -189 -198 -460q-72 -198 -72 -396q0 -100 18 -202q0 -31 -59 -66q-41 -22 -86 -33q-38 -10 -63 -10 q-80 0 -80 61q0 537 -267 1397z" />
<glyph unicode="X" horiz-adv-x="1200" d="M109 1411q-7 12 -7 25q0 24 25 49q31 28 77 46.5t93 18.5q46 -3 61 -37q91 -238 230 -526q140 302 248 592q13 36 61 39q14 1 27 1q94 0 161 -56q23 -20 23 -41q0 -11 -6 -23q-185 -316 -381 -772q5 -10 108 -216.5t179 -360.5q6 -15 6 -27q0 -52 -96 -90 q-57 -23 -89 -23q-46 0 -61 37q-98 236 -170 406q-32 -69 -84 -187l-86 -184q-16 -36 -66 -39q-10 -1 -19 -1q-100 0 -163 58q-22 18 -22 39q0 11 6 23l147 278q77 144 156 297q-183 374 -358 674z" />
<glyph unicode="Y" horiz-adv-x="1034" d="M10 1542q-6 13 -6 25q0 20 17 37q28 26 100 45q38 10 69 10q84 0 99 -49q69 -241 272 -725q161 399 252 749q9 36 59 39q14 1 27 1q94 0 166 -56q23 -20 23 -42q0 -10 -5 -20q-139 -297 -290 -731q-227 -646 -263 -739q-15 -38 -61 -41q-13 -1 -26 -1q-93 0 -162 56 q-25 18 -25 43q0 10 4 21q92 214 158 364q-193 549 -408 1014z" />
<glyph unicode="Z" horiz-adv-x="1122" d="M80 240q0 51 20 77q169 276 297 494q176 300 269 512q-200 0 -437 -27h-4q-50 0 -53 146q0 50 8 86q7 30 18 44.5t25 12.5q100 -13 191 -13q58 0 112 5q36 3 154 13.5t199 17.5q7 1 14 1q90 0 104 -114q4 -28 4 -39q0 -89 -65 -127q-216 -349 -553 -1005l481 65 q11 1 21 1q61 0 108 -44q56 -53 56 -127q0 -104 -105 -113q-66 -6 -305 -20q-198 -12 -455 -53q-5 -1 -9 -1q-23 0 -43 24q-22 28 -38 87q-14 55 -14 97z" />
<glyph unicode="[" horiz-adv-x="858" d="M80 1696q0 42 12 82q24 75 90 75q336 0 535 27q52 6 78 -45q21 -41 24 -92q3 -60 -14 -101q-27 -52 -78 -55q-152 0 -379 -8q-10 -263 -10 -469q0 -240 8 -545q9 -390 12 -540q138 0 363 22q50 6 80 -41q21 -41 24 -94q3 -49 -16 -98q-26 -51 -78 -54q-127 -3 -217 0 q-91 7 -328 -30q-53 -9 -80 47q-25 45 -22 96q31 682 31 1049q0 351 -27 714q-8 24 -8 60z" />
<glyph unicode="\" horiz-adv-x="1363" d="M43 1622q-22 36 14 74q65 68 170 78q52 3 68 -29q146 -321 504 -901q160 -264 282 -453l236 -358q40 -64 -88 -123q-58 -24 -99 -27q-53 -3 -67 29q-143 245 -498 860q-148 249 -254 430q-144 237 -268 420z" />
<glyph unicode="]" horiz-adv-x="970" d="M109 1696q-3 55 18 98q23 50 78 53q125 3 213 0q85 -3 332 33q50 6 77 -47q28 -48 25 -96q-33 -735 -33 -1059t29 -707q8 -24 8 -59q0 -41 -14 -82q-24 -76 -88 -76l-248 -2q-140 -4 -287 -22q-53 -6 -80 43q-21 41 -24 94t16 96q27 52 78 55q77 3 172 0q76 -3 207 11 q10 250 10 450q0 151 -10 551q-10 420 -10 551q-212 -3 -363 -22q-52 -6 -82 40q-21 40 -24 97z" />
<glyph unicode="^" horiz-adv-x="1308" d="M113 1245q-6 57 43 84q108 69 227 174q127 123 209 195q51 51 127 51q65 0 110 -63q54 -75 160 -164q68 -54 182 -142q66 -54 66 -118q0 -133 -141 -142q-61 -6 -123 47q-141 153 -266 250q-77 -49 -189 -147q-57 -51 -174 -160q-47 -41 -102 -23q-120 40 -129 158z" />
<glyph unicode="_" horiz-adv-x="1447" d="M66 -31q-3 49 14 94q21 55 67 52q266 -23 486 -9q248 15 561 27q80 3 129 -29q67 -40 70 -110q3 -69 -62 -113q-52 -37 -127 -37q-119 0 -207 2q-192 4 -204 4q-248 0 -635 -26q-44 -3 -72 51q-17 38 -20 94z" />
<glyph unicode="`" />
<glyph unicode="a" horiz-adv-x="1234" d="M244 899q125 219 157 295q76 169 76 311v11v5q0 52 55 85q44 27 107 30h16q55 0 95 -18q62 -27 65 -84q77 -347 205 -680l256 -657q4 -12 4 -21q0 -51 -106 -100q-63 -29 -95 -29q-39 0 -51 35l-51 154q-29 82 -51 155l-310 19q-126 4 -188 4q-84 0 -127 -2 q-33 -150 -33 -315v-27q3 -64 -94 -64q-57 0 -121 31q-71 37 -71 86q0 315 262 776zM383 668q106 -12 193 -12q19 0 36 1q114 3 228 9q-50 157 -181 524q-98 -162 -276 -522z" />
<glyph unicode="b" horiz-adv-x="1361" d="M96 1374q-1 18 -1 34q0 117 57 128q161 31 303 31q192 0 360 -51q312 -89 318 -377v-7q0 -169 -150 -294q264 -113 264 -357v-6q-3 -288 -338 -399q-131 -45 -303 -60q-50 -3 -309 -18q-18 -1 -33 -1q-44 1 -69 9q-33 12 -31 39q31 515 31 797q0 182 -13 405 q-12 -4 -20 -4q-57 0 -66 131zM420 899q211 9 297 37q172 52 172 197q-3 139 -141 176q-70 18 -158 18q-81 0 -164 -14q-7 -154 -7 -310q0 -52 1 -104zM426 627l10 -348q44 -3 88 -3q140 0 287 27q193 40 193 166q-3 164 -181 188q-55 9 -112 9q-141 0 -285 -39z" />
<glyph unicode="c" horiz-adv-x="1282" d="M66 817q3 338 163 561q185 258 502 258q166 0 275 -71q97 -67 182 -273q8 -16 8 -39q0 -50 -61 -102q-39 -33 -70 -33q-35 0 -59 43q-82 163 -209 193q-33 8 -72 8q-122 0 -229 -107q-136 -139 -185 -372q-16 -98 -16 -172q0 -131 47 -234q75 -167 238 -207q33 -8 71 -8 q156 0 287 174q27 35 66 35q38 0 86 -31q75 -54 75 -110q0 -24 -8 -37q-138 -301 -502 -301q-307 0 -462 272q-127 222 -127 538v15z" />
<glyph unicode="d" horiz-adv-x="1337" d="M47 1477q0 98 84 110q75 17 186 31q140 20 269 20q294 0 444 -112q218 -164 227 -602v-25q0 -408 -282 -618q-257 -189 -701 -207q-19 -2 -36.5 -2t-34.5 2q-51 0 -51 53v6q28 468 28 787q0 196 -12 399h-5q-100 0 -114 125q-2 10 -2 33zM406 1073q0 4 2 -70.5t6 -254 t8 -396.5q302 30 446 150q154 126 154 366q0 29 -2 60q-35 477 -424 477q-82 0 -184 -21q-6 -153 -6 -311z" />
<glyph unicode="e" horiz-adv-x="1064" d="M131 106q0 330 12 687q4 122 4 242l-16 473q0 30 23 49q25 21 75 28q46 6 78 6q49 0 76 -12q62 -11 141 -10h37l211 6q45 0 72 -55q19 -39 22 -97q0 -49 -16 -92q-20 -49 -65 -49h-5q-10 0 -198 18q-106 12 -172 12q-14 0 -27 -1q-4 -144 -4 -217q-2 -55 -1.5 -109.5 t1.5 -107.5q75 -11 123 -11q60 0 170 13q46 7 168 20h5q45 0 73 -47q21 -41 30 -92q2 -10 2 -33q0 -117 -73 -117q-35 -1 -67 -1q-74 0 -130 5q-13 1 -29 1q-83 0 -264 -25h-2q3 -139 12 -271q102 3 187 17l215 33q7 1 14 1q40 0 72 -44q28 -40 37 -95q2 -12 2 -34 q0 -116 -80 -119l-275 -12q-137 -8 -274 -25q-18 -6 -39 -6q-34 0 -66 14q-59 24 -59 57z" />
<glyph unicode="f" horiz-adv-x="1026" d="M115 59q0 329 12 686q3 111 3 219l-15 499q0 29 23 47q24 21 75 30q43 6 78 6q51 0 76 -14q63 -9 137 -9q20 0 41 1q36 1 107 2t102 2q47 0 71 -53q20 -44 23 -97q0 -50 -17 -92q-20 -49 -64 -49h-5t-197 16q-114 11 -177 11h-19q-10 -146 -10 -309q0 -41 1 -83 q68 -10 123 -10q47 0 90 6l248 29q5 1 10 1q42 0 66 -48q24 -41 33 -92q2 -10 2 -33q0 -114 -74 -117q-52 -1 -92 -1q-67 0 -102 3q-13 1 -29 1q-83 0 -264 -25h-2q9 -162 18 -490q3 -66 -135 -84q-28 -4 -39 -4q-98 0 -98 51z" />
<glyph unicode="g" horiz-adv-x="1368" d="M86 694q0 39 4 121q24 331 170 555q178 272 483 272q171 0 306 -75q129 -73 194 -275q6 -15 6 -32q0 -57 -67 -109q-41 -35 -72 -35q-37 0 -55 43q-65 138 -215 176q-49 11 -82 11q-118 0 -234 -84q-157 -115 -221 -349q-20 -79 -20 -163q0 -35 4 -72q21 -266 196 -389 q70 -49 160 -49q125 0 262 57q105 41 105 168q0 120 -6 246q-4 0 -43 -2t-138.5 -7t-197.5 -10h-3q-58 0 -92 40q-36 40 -41 106v15q0 49 17 83q25 47 72 47h6q89 -6 159 -6q56 0 99 4q112 3 299 23h5q45 0 87 -56q38 -51 38 -94q0 -6 -1 -12q-29 -251 -29 -497v-46 q0 -38 -6 -53q-137 -254 -608 -254q-246 0 -406 207q-135 175 -135 495z" />
<glyph unicode="h" horiz-adv-x="1161" d="M168 801q2 68 2 137q0 291 -31 590v5q0 59 135 79q14 2 39 2q102 0 99 -49q-19 -234 -19 -515v-77q54 -4 76 -4q55 0 102 8l205 22q4 95 8 293q1 39 1 84q0 91 -3 207q-3 69 142 84q15 2 30 2q27 0 52 -6q54 -8 54 -42q0 -3 -1 -7q-53 -356 -53 -705v-37v-735 q0 -69 -140 -84q-16 -2 -32 -2q-27 0 -52 6q-54 12 -51 54l31 602l-141 4q-62 0 -220 -19q0 -21 7 -264q4 -218 4 -266q0 -68 -138 -86q-28 -4 -41 -4q-51 0 -73 12t-21 37z" />
<glyph unicode="i" horiz-adv-x="581" d="M162 121q0 329 12 686q4 124 4 244q0 240 -16 467q-1 32 32.5 52.5t104.5 31.5q14 2 39 2q52 0 76 -12q22 -11 22 -33v-5q-30 -249 -30 -506q0 -98 4 -196q8 -178 16 -414l10 -283q0 -66 -137 -83q-24 -4 -39 -4q-98 0 -98 53z" />
<glyph unicode="j" horiz-adv-x="1177" d="M129 544q0 65 121 68h9q119 0 122 -82q9 -166 39 -204q31 -34 131 -34q28 0 61 3q216 15 234 303q4 66 4 104q0 251 -70 553q-111 0 -166 2q-113 0 -329 -14h-7q-82 0 -85 146v14q0 42 16 82q20 49 67 49h5q157 -12 238 -12h30q120 6 317 22h13q79 0 120 -71 q31 -57 31 -101q0 -28 -8 -47q45 -383 45 -672q0 -155 -16 -280q-44 -323 -443 -350q-108 -5 -119 -5q-192 0 -256 58q-104 90 -104 468z" />
<glyph unicode="k" horiz-adv-x="1257" d="M98 104q0 300 13 687q4 117 4 232q0 241 -17 478q-3 66 138 84q14 2 38 2q99 0 99 -44v-5q-31 -251 -31 -502q0 -59 2 -118q309 376 512 665q12 18 41 18q10 0 23 -2q100 -21 155 -102q12 -15 12 -33q0 -14 -12 -26q-215 -215 -520 -635q46 4 68 4q143 0 192 -82 q53 -80 80 -188q26 -125 53 -177q9 -22 33 -22q43 0 129 68q13 8 27 8q52 0 82 -92q10 -38 10 -66q0 -73 -53 -94q-183 -82 -281 -82q-55 0 -82 24q-69 58 -113 181q-60 166 -79 202q-24 43 -89 43t-174 -47l7 -172l8 -170q3 -68 -137 -86q-28 -4 -39 -4q-99 0 -99 53z" />
<glyph unicode="l" horiz-adv-x="1007" d="M123 154q0 289 10 686q4 121 4 245l-14 469q0 30 33 50q34 20 106 32q14 2 37 2q96 0 96 -45v-6q-28 -243 -28 -484q0 -62 2 -124q11 -396 20 -608q89 0 201 14l201 31q5 1 11 1q42 0 75 -42q27 -41 36 -94q2 -12 2 -37q0 -114 -79 -117q-90 -2 -275 -10 q-137 -8 -274 -29h-10q-32 0 -84 16q-70 21 -70 50z" />
<glyph unicode="m" horiz-adv-x="1765" d="M127 94q51 340 51 676v37v704q0 69 131 78q22 1 41 1q101 0 123 -40q229 -368 399 -825q120 138 265 442q135 285 135 387q6 74 102 74q15 0 35 -4q75 -21 98 -37q35 -24 35 -80q0 -115 19 -319q25 -295 28 -332q18 -345 74 -719q1 -4 1 -8q0 -61 -134 -86q-27 -8 -57 -8 q-83 0 -80 45q1 40 1 83q0 339 -63 865q-298 -469 -354 -713q-9 -45 -141 -57q-24 -2 -44 -2q-84 0 -87 41q-30 414 -275 801q-32 -458 -32 -792l3 -188q0 -68 -141 -77q-22 -3 -41 -3q-25 0 -43 5q-50 8 -50 43q0 4 1 8z" />
<glyph unicode="n" horiz-adv-x="1288" d="M164 713q2 66 2 133q0 285 -31 594q-1 5 -1 10q0 40 36 66q40 28 125 36q18 1 35 1q34 0 61 -5q73 -12 76 -49q15 -180 166 -407q137 -201 258 -367l12 383q3 103 3 199.5t-3 187.5v3q0 67 144 81q19 3 36 3q23 0 45 -5q29 -7 42 -19q11 -10 11 -25q0 -3 -1 -7 q-52 -369 -52 -705v-37v-735q0 -44 -53 -65q-43 -19 -92 -19q-49 3 -90 21q-54 23 -57 67q-12 281 -140 543q-80 160 -307 471v-50q0 -141 8 -446q11 -412 11 -491q0 -67 -138 -88q-14 -2 -41 -2q-49 0 -73 14q-22 12 -21 35z" />
<glyph unicode="o" horiz-adv-x="1433" d="M63 700q0 48 7 123q27 341 194 563q194 256 518 256q268 0 443 -172q145 -145 145 -487q0 -75 -6 -160q-71 -815 -713 -815q-287 0 -444 207q-144 187 -144 485zM266 705q0 -106 37 -187q70 -168 248 -209q52 -10 96 -10q123 0 248 70q173 95 238 360q26 121 26 225 q0 318 -274 383q-57 11 -90 11q-129 0 -254 -82q-169 -114 -240 -346q-35 -116 -35 -215z" />
<glyph unicode="p" horiz-adv-x="1263" d="M55 1442q-1 16 -1 31q0 115 63 126q176 34 368 37h11q414 0 600 -231q94 -120 94 -320v-24q-18 -534 -793 -569q0 -92 2 -168q2 -74 2 -166q0 -71 -139 -86q-12 -2 -37 -2q-96 0 -96 48l29 800q0 186 -13 409q-4 0 -6 -2q-8 -2 -20 -2q-55 0 -64 119zM383 1067 q0 -165 6 -328q236 6 369 60q200 77 215 266q1 14 1 27q0 202 -175 262q-133 47 -275 47q-57 0 -135 -10q-6 -163 -6 -324z" />
<glyph unicode="q" horiz-adv-x="1449" d="M100 649q0 75 6 158q27 402 224 631q183 213 454 213q265 0 435 -170q133 -142 133 -486q0 -85 -9 -180q-21 -278 -92 -455q71 -108 129 -219q9 -15 9 -26q0 -53 -80 -121q-65 -53 -101 -53q-23 0 -37 20q-22 43 -84 145q-139 -124 -393 -124q-147 0 -278 49 q-148 53 -209 147q-107 162 -107 471zM309 674q0 -289 193 -383q56 -29 135 -29q173 0 291 109q-90 139 -205 266q-11 11 -11 27t11 38q51 91 145 125q17 6 30 6q21 0 32 -16q9 -14 36 -52t44 -63l69 -96q21 62 35 111q35 146 35 258q0 175 -86 278q-91 111 -262 111 q-202 0 -295 -100q-116 -125 -168 -355q-29 -139 -29 -235z" />
<glyph unicode="r" horiz-adv-x="1304" d="M74 1376q-1 17 -1 32q0 115 60 126q175 30 363 39q21 1 41 1q369 0 550 -210q104 -119 113 -336q1 -13 0 -25q0 -338 -391 -454q5 -46 16 -121q15 -76 39 -111q25 -38 86 -41h5q55 0 171 58q12 7 23 7q22 0 43 -28q25 -32 33 -73q6 -24 6 -47q0 -89 -60 -111 q-198 -74 -303 -74q-62 0 -96 27q-116 84 -131 172q-14 77 -45 201q-15 51 -64 51q-45 0 -118 -33q6 -169 6 -334q0 -68 -139 -86q-28 -4 -41 -4q-50 0 -73 12.5t-22 38.5q31 539 31 787q0 223 -14 420q-20 -5 -25 -5q-54 0 -63 121zM399 1034q0 -124 7 -295q246 3 370 43 q205 64 205 239v15q-12 221 -188 277q-112 28 -224 28q-84 0 -161 -14q-9 -147 -9 -293z" />
<glyph unicode="s" horiz-adv-x="1366" d="M125 1114q0 54 16 129q47 184 193 275q134 84 328 84q120 0 235 -33q140 -43 217 -103q25 -19 25 -53q0 -29 -25 -84q-41 -80 -96 -80q-9 0 -29 4q-19 45 -131 72q-90 24 -156 29q-27 2 -52 2q-216 0 -265 -117q-8 -19 -8 -41q0 -64 102 -104q146 -53 463 -80 q124 -12 199 -37q97 -43 141 -135q47 -106 47 -232v-18q0 -113 -35 -225q-44 -142 -117.5 -214t-207.5 -96q-69 -12 -238 -20q-18 -2 -59 -2q-203 0 -355 96q-168 111 -168 225q0 8 1 15q14 133 43 217q24 74 86 74q22 0 55 -13q78 -35 78 -76q0 -13 -6 -22q-21 -47 -22 -85 q0 -5 1 -9q6 -42 64 -82q117 -86 279 -86h11q152 0 246 61q111 70 111 201v14q-3 128 -101 156q-134 35 -268 47q-60 2 -199 10q-118 9 -194 43q-209 99 -209 293z" />
<glyph unicode="t" horiz-adv-x="1015" d="M0 1559q0 44 12 64t37 17q139 -14 254 -14q63 0 119 4q22 2 88.5 7.5t149.5 12.5t171 13h9q73 0 131 -47q61 -46 61 -123q0 -118 -135 -121q-34 -1 -65 -1q-62 0 -113 3h-86q-6 -150 -6 -303q0 -185 8 -453q10 -335 10 -450q0 -66 -139 -84q-28 -4 -37 -4q-96 0 -96 48 l28 796q0 206 -16 446l-143 -8l-125 -12h-6q-34 0 -59 32q-27 36 -44 111q-8 31 -8 66z" />
<glyph unicode="u" horiz-adv-x="1341" d="M133 801q0 141 14 270q22 202 43 455q3 70 113 73q60 0 86 -19q25 -18 25 -59q0 -77 -39 -382q-31 -251 -31 -381q2 -230 87 -342q82 -109 243 -109h12q358 12 358 467q0 161 -38 348q-6 38 -74 344q-4 32 -4 45q0 87 98 99q10 1 20 1q46 0 79 -24q40 -29 46 -80 q12 -100 68 -493q14 -88 14 -199q0 -436 -163 -635q-121 -148 -410 -160q-18 -1 -35 -1q-295 0 -420 245q-92 182 -92 537z" />
<glyph unicode="v" horiz-adv-x="1331" d="M68 1413q-6 10 -6 21q0 26 36 53q36 28 78 47q59 23 107 29h9q44 0 54 -29q120 -321 354 -989q209 522 299 989q6 33 50 33h8q57 -3 141 -49q84 -43 84 -87q0 -9 -4 -18q-215 -478 -467 -1370q-9 -66 -143 -72h-10q-123 0 -123 72q-111 815 -467 1370z" />
<glyph unicode="w" horiz-adv-x="1662" d="M76 1522q-1 5 -1 11q0 29 42 48q38 20 78 25q12 2 38 2q100 0 109 -47q65 -412 127 -742q67 144 135 285q76 171 76 303q0 59 -8 127v8q0 40 38 61t105 21h12q95 -4 139 -27t42 -63q-15 -159 -15 -186q0 -118 47 -207q113 -221 174 -373l68 395q35 214 61 398 q9 47 107 47q71 0 131 -31q33 -17 33 -43q0 -6 -2 -12q-131 -418 -178 -766q-45 -344 -48 -631q0 -61 -63 -82q-37 -13 -76 -13q-18 0 -37 3q-54 6 -104 28q-54 31 -54 70q0 6 1 12q16 118 16 207q0 179 -57 305q-71 154 -183 373q-96 -186 -172 -360q-51 -111 -51 -273 q0 -90 23 -225q0 -55 -164 -96q-49 -11 -78 -11q-88 0 -88 62q0 480 -111 969q-50 222 -112 428z" />
<glyph unicode="x" horiz-adv-x="1146" d="M106 184q212 390 351 678q-152 311 -334 625q-7 11 -7 22q0 23 27 50q78 63 168 63q52 -3 64 -37q86 -228 200 -469q121 264 201 486q12 35 62 38q13 1 26 1q93 0 162 -58q22 -18 22 -38q0 -11 -6 -23q-145 -251 -335 -668l317 -633q6 -12 6 -24q0 -52 -96 -93 q-55 -22 -86 -22q-49 0 -64 41q-102 249 -198 461l-109 -242q-19 -46 -106 -238q-15 -35 -70 -38q-13 -1 -25 -1q-91 0 -155 58q-21 17 -21 37q0 12 6 24z" />
<glyph unicode="y" horiz-adv-x="1089" d="M39 1452q-8 12 -8 25q0 23 24 49q30 32 74 52t90 21h8q44 0 58 -32q117 -293 323 -672q161 342 289 696q13 36 64 39q14 1 27 1q95 0 159 -56q20 -20 20 -43q0 -11 -6 -23q-153 -274 -350 -721q-182 -414 -322 -739q-16 -36 -65 -39q-14 -1 -26 -1q-94 0 -156 57 q-22 20 -22 42q0 11 5 23l262 510q-207 418 -448 811z" />
<glyph unicode="z" horiz-adv-x="1112" d="M111 1470q0 80 31 81q2 0 5 -1q111 -16 213 -15q61 0 119 5l383 31q8 1 16 1q91 0 128 -97q18 -46 18 -82q0 -51 -33 -80q-196 -318 -577 -1053q24 0 456 33h9q60 -1 104 -49q47 -52 47 -123q0 -119 -110 -119q-50 -1 -95 -1q-105 0 -186 5q-20 1 -44 1q-125 0 -386 -25 h-5q-26 0 -44 28q-20 30 -33 96q-10 58 -10 93q0 49 18 67l303 500q166 287 271 518q-253 0 -508 -24h-5q-59 0 -79 147q-6 34 -6 63z" />
<glyph unicode="{" horiz-adv-x="1499" d="M33 803q0 51 14 92q21 58 66 55q231 -24 419 -12q30 2 191 11.5t289 17.5q70 5 121 -35.5t55 -108.5q1 -67 -46 -108t-118 -41q-104 0 -182 2q-86 2 -183 2q-216 0 -555 -25q-71 -6 -71 150zM428 1567q0 117 115 176q52 21 98 -6q305 -192 537 -314q52 -24 55 -82 q3 -120 -100 -174q-51 -23 -101 4q-167 100 -272 164q-164 99 -279 154q-53 24 -53 78zM547 -2q-6 55 41 90q297 212 487 381q44 38 96 20q115 -41 127 -157q3 -56 -43 -90l-251 -191q-136 -104 -244 -201q-39 -39 -94 -20q-110 40 -119 168z" />
<glyph unicode="|" horiz-adv-x="563" d="M147 -119q19 422 29 873q9 497 -29 952q-6 84 138 111q12 2 39 2q51 0 75.5 -16.5t22.5 -49.5q-32 -431 -16 -917q16 -491 16 -906q0 -45 -49 -75q-43 -28 -90 -37q-14 -2 -39 -2q-51 0 -75 16.5t-22 48.5z" />
<glyph unicode="}" horiz-adv-x="1507" d="M205 1243q-6 55 41 90l252 191q145 114 243 205q39 36 93 18q111 -47 120 -168q6 -57 -41 -92l-233 -170q-106 -78 -254 -211q-44 -38 -98 -23q-114 38 -123 160zM268 229q-6 118 103 177q44 26 98 -5l270 -163q160 -94 281 -150q51 -23 51 -78q0 -121 -113 -176 q-54 -25 -98 8q-280 180 -536 308q-53 27 -56 79zM311 748q-3 69 49 112q45 39 117 39q106 0 182 -2q88 -2 183 -2q203 0 557 27q38 3 59 -58q12 -43 12 -92t-16 -92q-23 -56 -63 -53q-225 21 -420 12l-479 -29q-74 -5 -125.5 33t-55.5 105z" />
<glyph unicode="~" horiz-adv-x="1372" d="M123 879q-6 84 67 188q76 107 160 107q27 0 51 -15q57 -29 185 -139q116 -96 192 -125q18 -6 35 -6q83 0 182 141q63 93 125 96q70 3 105 -65q23 -53 20 -133q-3 -96 -71 -185q-125 -168 -259 -153q-105 12 -227 74q-45 23 -207 129q-27 18 -53 18q-41 0 -59 -59 q-35 -89 -90 -86q-72 3 -115 73q-38 59 -41 140z" />
<glyph unicode="&#xa0;" />
<glyph unicode="&#xa2;" horiz-adv-x="1236" d="M84 768q-18 135 147 293q128 119 285 196q-22 133 -43 232q-12 66 127 96q52 12 98 6q43 -6 43 -39q0 -75 11 -233q148 3 237 -68q60 -45 158 -190q16 -37 16 -62q0 -55 -78 -79q-49 -17 -73 -17q-47 0 -62 35q-45 111 -172 102q-158 -12 -321 -106q-144 -82 -144 -178 q0 -57 35.5 -119t81.5 -82q61 -23 119 -23q119 0 274 76q214 97 234 97q61 0 82 -93q4 -28 4 -41q0 -101 -123 -163q-90 -47 -158 -66q9 -58 21 -180q9 -64 -131 -99q-31 -8 -64 -8q-71 0 -74 43q-3 29 -6 99l-4 102q-224 -6 -360 121q-125 119 -160 348z" />
<glyph unicode="&#xa8;" />
<glyph unicode="&#xa9;" horiz-adv-x="1873" d="M111 651q0 75 6 158q35 434 248 715q246 323 657 323q339 0 563 -217q184 -178 184 -614q0 -87 -10 -207q-89 -1036 -903 -1036q-342 0 -559 258q-186 216 -186 620zM340 651q0 -169 61 -303q110 -244 328 -297q65 -12 125 -12q160 0 338 90q243 129 319 559 q31 169 31 295q0 208 -74 338q-120 206 -335 258q-44 8 -97 8q-170 0 -346 -135q-222 -173 -311 -516q-39 -144 -39 -285zM518 801q9 231 129 395q138 184 361 184q130 0 204 -59q68 -59 111 -184q6 -12 6 -27q0 -38 -45 -74q-30 -24 -51 -24q-27 0 -41 32q-71 142 -195 142 q-87 0 -163 -76q-100 -100 -140 -266q-16 -78 -16 -137q0 -105 47 -185q52 -88 147 -112q28 -7 50 -7q108 0 206 125q21 27 48 27q23 0 61 -23q51 -36 51 -75q0 -18 -8 -31q-106 -213 -360 -213q-218 0 -326 193q-85 158 -76 395z" />
<glyph unicode="&#xad;" horiz-adv-x="1112" d="M152 762q-2 39 8 86q6 32 17 46t28 11q158 -22 301 -10l352 31q55 4 89 -37t34 -103t-27 -102q-35 -47 -90 -47q-127 -2 -258 2q-96 5 -395 -23q-53 -6 -59 146z" />
<glyph unicode="&#xae;" horiz-adv-x="1869" d="M109 643q0 75 6 158q35 436 247 712q250 324 658 324q339 0 563 -217q186 -177 186 -614q0 -85 -10 -205q-89 -1039 -905 -1039q-342 0 -559 258q-186 216 -186 623zM338 639q0 -167 61 -301q111 -248 330 -295q57 -14 121 -14q165 0 340 94q243 126 319 555 q31 169 31 297q0 206 -74 336q-120 205 -333 258q-55 10 -97 10q-174 0 -348 -137q-220 -172 -309 -514q-41 -155 -41 -289zM584 1165q-3 92 39 101q109 20 229 20q119 0 225 -20q224 -43 236 -326q9 -238 -252 -309q17 -95 35 -152q9 -28 45 -28q43 0 123 41q9 6 18 6 q30 0 45 -68q6 -21 6 -41q0 -49 -39 -63q-130 -47 -198 -47q-38 0 -60 16q-48 36 -69 111l-33 135q-9 30 -45 30q-34 0 -84 -20q0 -62 2 -109t2 -108q0 -43 -90 -55q-91 -12 -88 30q13 223 16 375q6 200 -6 406q-15 -5 -16 -5q-38 0 -41 80zM797 944q0 -127 2 -190 q190 0 282.5 47.5t87.5 142.5q-9 143 -120 180q-67 21 -144 21q-46 0 -104 -10q-7 -106 -4 -191z" />
<glyph unicode="&#xd2;" />
<glyph unicode="&#xd3;" />
<glyph unicode="&#xd4;" />
<glyph unicode="&#xd5;" />
<glyph unicode="&#x2000;" horiz-adv-x="940" />
<glyph unicode="&#x2001;" horiz-adv-x="1880" />
<glyph unicode="&#x2002;" horiz-adv-x="940" />
<glyph unicode="&#x2003;" horiz-adv-x="1880" />
<glyph unicode="&#x2004;" horiz-adv-x="626" />
<glyph unicode="&#x2005;" horiz-adv-x="470" />
<glyph unicode="&#x2006;" horiz-adv-x="313" />
<glyph unicode="&#x2007;" horiz-adv-x="313" />
<glyph unicode="&#x2008;" horiz-adv-x="235" />
<glyph unicode="&#x2009;" horiz-adv-x="376" />
<glyph unicode="&#x200a;" horiz-adv-x="104" />
<glyph unicode="&#x2010;" horiz-adv-x="1112" d="M152 762q-2 39 8 86q6 32 17 46t28 11q158 -22 301 -10l352 31q55 4 89 -37t34 -103t-27 -102q-35 -47 -90 -47q-127 -2 -258 2q-96 5 -395 -23q-53 -6 -59 146z" />
<glyph unicode="&#x2011;" horiz-adv-x="1112" d="M152 762q-2 39 8 86q6 32 17 46t28 11q158 -22 301 -10l352 31q55 4 89 -37t34 -103t-27 -102q-35 -47 -90 -47q-127 -2 -258 2q-96 5 -395 -23q-53 -6 -59 146z" />
<glyph unicode="&#x2012;" horiz-adv-x="1112" d="M152 762q-2 39 8 86q6 32 17 46t28 11q158 -22 301 -10l352 31q55 4 89 -37t34 -103t-27 -102q-35 -47 -90 -47q-127 -2 -258 2q-96 5 -395 -23q-53 -6 -59 146z" />
<glyph unicode="&#x2013;" horiz-adv-x="1306" d="M151 762q-2 39 10 86q8 32 21.5 46t34.5 11q195 -22 372 -10l434 31q68 4 110 -37t42 -103t-33 -102q-44 -47 -111 -47q-157 -2 -319 2q-119 5 -488 -23q-65 -6 -73 146z" />
<glyph unicode="&#x2014;" horiz-adv-x="2330" d="M152 762q-5 39 20 86q14 32 41.5 46t69.5 11q390 -22 743 -10l869 31q136 4 220 -37t84 -103t-67 -102q-86 -47 -222 -47q-314 -2 -637 2q-237 5 -975 -23q-131 -6 -146 146z" />
<glyph unicode="&#x2018;" horiz-adv-x="624" d="M123 1634q-12 59 39 95q46 30 104 30q30 0 60 -10q40 -15 55 -117q3 -70 12 -141q14 -119 137 -342q13 -23 13 -41q0 -46 -78 -64q-27 -6 -49 -6q-73 0 -107 64q-127 239 -186 532z" />
<glyph unicode="&#x2019;" horiz-adv-x="684" d="M147 1108q0 18 13 41q76 135 114 258q34 109 43 274q6 78 105 78q60 0 106 -30q51 -39 39 -95q-53 -277 -188 -532q-34 -64 -105 -64q-22 0 -49 6q-78 18 -78 64z" />
<glyph unicode="&#x201c;" horiz-adv-x="1024" d="M127 1501q-9 60 39 96q44 33 106 33q30 0 60 -12q45 -17 57 -119l12 -141q15 -116 138 -340q12 -21 12 -39q0 -48 -82 -66q-24 -6 -47 -6q-70 0 -105 66q-131 250 -190 528zM522 1634q-12 59 39 95q47 30 103 30q31 0 61 -10q42 -14 57 -117l13 -141q15 -124 135 -342 q12 -21 12 -41q0 -46 -78 -64q-27 -6 -49 -6q-70 0 -104 64q-130 239 -189 532z" />
<glyph unicode="&#x201d;" horiz-adv-x="1089" d="M170 1108q0 20 12 41q89 161 115 256q34 106 43 276q6 78 106 78q58 0 105 -30q51 -39 39 -95q-52 -282 -189 -532q-34 -64 -104 -64q-22 0 -49 6q-78 18 -78 64zM563 979q0 18 12 39q77 135 115 256q34 112 43 276q6 80 107 80q57 0 106 -37q49 -34 37 -92 q-55 -274 -188 -528q-35 -66 -105 -66q-22 0 -49 6q-78 18 -78 66z" />
<glyph unicode="&#x2026;" horiz-adv-x="1822" d="M158 207q-21 90 16 139q19 28 105 37q91 9 114 -8q55 -46 64 -137q9 -90 -13 -154q-15 -41 -102 -53q-88 -15 -117 24q-45 60 -67 152zM756 242q-22 91 14 141q19 28 107 37q89 12 112 -8q57 -41 66 -138q8 -86 -15 -151q-15 -45 -100 -57q-89 -12 -119 28 q-43 54 -65 148zM1415 211q-21 87 15 141q17 26 106 35q88 12 115 -6q54 -45 63 -139q9 -89 -14 -152q-15 -46 -101 -55q-90 -12 -116 26q-46 58 -68 150z" />
<glyph unicode="&#x202f;" horiz-adv-x="376" />
<glyph unicode="&#x205f;" horiz-adv-x="470" />
<glyph unicode="&#x2122;" horiz-adv-x="2048" d="M111 1632q0 33 24 33q99 -3 287 33q184 35 244 35q69 0 96 -80q8 -19 8 -39q0 -49 -68 -64q-36 -5 -108 -10q-13 -1 -43.5 -4t-48.5 -4q-6 -102 -6 -205q0 -95 6 -285q8 -167 8 -282q0 -43 -90 -55q-87 -12 -84 30q4 59 16 373q6 197 -6 403q-62 -11 -153 -24 q-43 -9 -70 86q-12 37 -12 59zM905 754q36 226 33 454v451q0 41 96 47q98 6 117 -25q35 -59 127 -295l137 -358q75 87 164 348q80 232 80 312q0 14 30.5 32.5t71.5 22.5q45 4 74 -14t31 -43q3 -33 30 -449q17 -260 46 -451q6 -43 -84 -61q-45 -9 -68 -2q-11 2 -16.5 9.5 t-4.5 17.5q6 210 -36 569q-68 -99 -146 -268q-84 -184 -104 -283q-9 -31 -88 -37q-81 -6 -84 25q-12 127 -80 329q-65 201 -133 310q-28 -393 -19 -623q0 -45 -92 -51q-91 -12 -82 33z" />
<glyph unicode="&#xe000;" horiz-adv-x="1638" d="M0 0v1638h1638v-1638h-1638z" />
</font>
</defs>
</svg>
